<mxfile host="app.diagrams.net" agent="Mozilla/5.0 (Windows NT 10.0; Win64; x64) AppleWebKit/537.36 (KHTML, like Gecko) Chrome/127.0.0.0 Safari/537.36" version="24.7.6">
  <diagram name="Page-1" id="0d22S5tzxNt0VxbU0aW7">
    <mxGraphModel dx="4928" dy="6588" grid="1" gridSize="10" guides="1" tooltips="1" connect="1" arrows="1" fold="1" page="1" pageScale="1" pageWidth="850" pageHeight="1100" math="0" shadow="0">
      <root>
        <mxCell id="0" />
        <mxCell id="1" parent="0" />
        <mxCell id="55U_5O9v7u5vhaTBd-zU-1" value="" style="rounded=0;whiteSpace=wrap;html=1;fillColor=#dae8fc;strokeColor=#6c8ebf;" vertex="1" parent="1">
          <mxGeometry x="40" y="320" width="80" height="80" as="geometry" />
        </mxCell>
        <mxCell id="55U_5O9v7u5vhaTBd-zU-2" value="" style="rounded=0;whiteSpace=wrap;html=1;fillColor=#dae8fc;strokeColor=#6c8ebf;" vertex="1" parent="1">
          <mxGeometry x="120" y="320" width="80" height="80" as="geometry" />
        </mxCell>
        <mxCell id="55U_5O9v7u5vhaTBd-zU-3" value="" style="rounded=0;whiteSpace=wrap;html=1;fillColor=#dae8fc;strokeColor=#6c8ebf;" vertex="1" parent="1">
          <mxGeometry x="40" y="400" width="80" height="80" as="geometry" />
        </mxCell>
        <mxCell id="55U_5O9v7u5vhaTBd-zU-4" value="" style="rounded=0;whiteSpace=wrap;html=1;fillColor=#dae8fc;strokeColor=#6c8ebf;" vertex="1" parent="1">
          <mxGeometry x="120" y="400" width="80" height="80" as="geometry" />
        </mxCell>
        <mxCell id="55U_5O9v7u5vhaTBd-zU-5" value="" style="rounded=0;whiteSpace=wrap;html=1;fillColor=#dae8fc;strokeColor=#6c8ebf;" vertex="1" parent="1">
          <mxGeometry x="200" y="320" width="80" height="80" as="geometry" />
        </mxCell>
        <mxCell id="55U_5O9v7u5vhaTBd-zU-6" value="" style="rounded=0;whiteSpace=wrap;html=1;fillColor=#dae8fc;strokeColor=#6c8ebf;" vertex="1" parent="1">
          <mxGeometry x="280" y="320" width="80" height="80" as="geometry" />
        </mxCell>
        <mxCell id="55U_5O9v7u5vhaTBd-zU-7" value="" style="rounded=0;whiteSpace=wrap;html=1;fillColor=#dae8fc;strokeColor=#6c8ebf;" vertex="1" parent="1">
          <mxGeometry x="200" y="400" width="80" height="80" as="geometry" />
        </mxCell>
        <mxCell id="55U_5O9v7u5vhaTBd-zU-8" value="" style="rounded=0;whiteSpace=wrap;html=1;fillColor=#dae8fc;strokeColor=#6c8ebf;" vertex="1" parent="1">
          <mxGeometry x="280" y="400" width="80" height="80" as="geometry" />
        </mxCell>
        <mxCell id="55U_5O9v7u5vhaTBd-zU-9" value="" style="rounded=0;whiteSpace=wrap;html=1;fillColor=#dae8fc;strokeColor=#6c8ebf;" vertex="1" parent="1">
          <mxGeometry x="40" y="480" width="80" height="80" as="geometry" />
        </mxCell>
        <mxCell id="55U_5O9v7u5vhaTBd-zU-10" value="" style="rounded=0;whiteSpace=wrap;html=1;fillColor=#dae8fc;strokeColor=#6c8ebf;" vertex="1" parent="1">
          <mxGeometry x="120" y="480" width="80" height="80" as="geometry" />
        </mxCell>
        <mxCell id="55U_5O9v7u5vhaTBd-zU-11" value="" style="rounded=0;whiteSpace=wrap;html=1;fillColor=#dae8fc;strokeColor=#6c8ebf;" vertex="1" parent="1">
          <mxGeometry x="40" y="560" width="80" height="80" as="geometry" />
        </mxCell>
        <mxCell id="55U_5O9v7u5vhaTBd-zU-12" value="" style="rounded=0;whiteSpace=wrap;html=1;fillColor=#dae8fc;strokeColor=#6c8ebf;" vertex="1" parent="1">
          <mxGeometry x="120" y="560" width="80" height="80" as="geometry" />
        </mxCell>
        <mxCell id="55U_5O9v7u5vhaTBd-zU-13" value="" style="rounded=0;whiteSpace=wrap;html=1;fillColor=#dae8fc;strokeColor=#6c8ebf;" vertex="1" parent="1">
          <mxGeometry x="200" y="480" width="80" height="80" as="geometry" />
        </mxCell>
        <mxCell id="55U_5O9v7u5vhaTBd-zU-14" value="" style="rounded=0;whiteSpace=wrap;html=1;fillColor=#dae8fc;strokeColor=#6c8ebf;" vertex="1" parent="1">
          <mxGeometry x="280" y="480" width="80" height="80" as="geometry" />
        </mxCell>
        <mxCell id="55U_5O9v7u5vhaTBd-zU-15" value="" style="rounded=0;whiteSpace=wrap;html=1;fillColor=#dae8fc;strokeColor=#6c8ebf;" vertex="1" parent="1">
          <mxGeometry x="200" y="560" width="80" height="80" as="geometry" />
        </mxCell>
        <mxCell id="55U_5O9v7u5vhaTBd-zU-16" value="" style="rounded=0;whiteSpace=wrap;html=1;fillColor=#dae8fc;strokeColor=#6c8ebf;" vertex="1" parent="1">
          <mxGeometry x="280" y="560" width="80" height="80" as="geometry" />
        </mxCell>
        <mxCell id="55U_5O9v7u5vhaTBd-zU-17" value="" style="rounded=0;whiteSpace=wrap;html=1;fillColor=#ffe6cc;strokeColor=#d79b00;" vertex="1" parent="1">
          <mxGeometry x="360" y="320" width="80" height="80" as="geometry" />
        </mxCell>
        <mxCell id="55U_5O9v7u5vhaTBd-zU-18" value="" style="rounded=0;whiteSpace=wrap;html=1;fillColor=#ffe6cc;strokeColor=#d79b00;" vertex="1" parent="1">
          <mxGeometry x="440" y="320" width="80" height="80" as="geometry" />
        </mxCell>
        <mxCell id="55U_5O9v7u5vhaTBd-zU-19" value="" style="rounded=0;whiteSpace=wrap;html=1;fillColor=#ffe6cc;strokeColor=#d79b00;" vertex="1" parent="1">
          <mxGeometry x="360" y="400" width="80" height="80" as="geometry" />
        </mxCell>
        <mxCell id="55U_5O9v7u5vhaTBd-zU-20" value="" style="rounded=0;whiteSpace=wrap;html=1;fillColor=#ffe6cc;strokeColor=#d79b00;" vertex="1" parent="1">
          <mxGeometry x="440" y="400" width="80" height="80" as="geometry" />
        </mxCell>
        <mxCell id="55U_5O9v7u5vhaTBd-zU-21" value="" style="rounded=0;whiteSpace=wrap;html=1;fillColor=#ffe6cc;strokeColor=#d79b00;" vertex="1" parent="1">
          <mxGeometry x="520" y="320" width="80" height="80" as="geometry" />
        </mxCell>
        <mxCell id="55U_5O9v7u5vhaTBd-zU-22" value="" style="rounded=0;whiteSpace=wrap;html=1;fillColor=#ffe6cc;strokeColor=#d79b00;" vertex="1" parent="1">
          <mxGeometry x="600" y="320" width="80" height="80" as="geometry" />
        </mxCell>
        <mxCell id="55U_5O9v7u5vhaTBd-zU-23" value="" style="rounded=0;whiteSpace=wrap;html=1;fillColor=#ffe6cc;strokeColor=#d79b00;" vertex="1" parent="1">
          <mxGeometry x="520" y="400" width="80" height="80" as="geometry" />
        </mxCell>
        <mxCell id="55U_5O9v7u5vhaTBd-zU-24" value="" style="rounded=0;whiteSpace=wrap;html=1;fillColor=#ffe6cc;strokeColor=#d79b00;" vertex="1" parent="1">
          <mxGeometry x="600" y="400" width="80" height="80" as="geometry" />
        </mxCell>
        <mxCell id="55U_5O9v7u5vhaTBd-zU-25" value="" style="rounded=0;whiteSpace=wrap;html=1;fillColor=#ffe6cc;strokeColor=#d79b00;" vertex="1" parent="1">
          <mxGeometry x="360" y="480" width="80" height="80" as="geometry" />
        </mxCell>
        <mxCell id="55U_5O9v7u5vhaTBd-zU-26" value="" style="rounded=0;whiteSpace=wrap;html=1;fillColor=#ffe6cc;strokeColor=#d79b00;" vertex="1" parent="1">
          <mxGeometry x="440" y="480" width="80" height="80" as="geometry" />
        </mxCell>
        <mxCell id="55U_5O9v7u5vhaTBd-zU-27" value="" style="rounded=0;whiteSpace=wrap;html=1;fillColor=#ffe6cc;strokeColor=#d79b00;" vertex="1" parent="1">
          <mxGeometry x="360" y="560" width="80" height="80" as="geometry" />
        </mxCell>
        <mxCell id="55U_5O9v7u5vhaTBd-zU-28" value="" style="rounded=0;whiteSpace=wrap;html=1;fillColor=#ffe6cc;strokeColor=#d79b00;" vertex="1" parent="1">
          <mxGeometry x="440" y="560" width="80" height="80" as="geometry" />
        </mxCell>
        <mxCell id="55U_5O9v7u5vhaTBd-zU-29" value="" style="rounded=0;whiteSpace=wrap;html=1;fillColor=#ffe6cc;strokeColor=#d79b00;" vertex="1" parent="1">
          <mxGeometry x="520" y="480" width="80" height="80" as="geometry" />
        </mxCell>
        <mxCell id="55U_5O9v7u5vhaTBd-zU-30" value="" style="rounded=0;whiteSpace=wrap;html=1;fillColor=#ffe6cc;strokeColor=#d79b00;" vertex="1" parent="1">
          <mxGeometry x="600" y="480" width="80" height="80" as="geometry" />
        </mxCell>
        <mxCell id="55U_5O9v7u5vhaTBd-zU-31" value="" style="rounded=0;whiteSpace=wrap;html=1;fillColor=#ffe6cc;strokeColor=#d79b00;" vertex="1" parent="1">
          <mxGeometry x="520" y="560" width="80" height="80" as="geometry" />
        </mxCell>
        <mxCell id="55U_5O9v7u5vhaTBd-zU-32" value="" style="rounded=0;whiteSpace=wrap;html=1;fillColor=#ffe6cc;strokeColor=#d79b00;" vertex="1" parent="1">
          <mxGeometry x="600" y="560" width="80" height="80" as="geometry" />
        </mxCell>
        <mxCell id="55U_5O9v7u5vhaTBd-zU-33" value="" style="rounded=0;whiteSpace=wrap;html=1;fillColor=#d5e8d4;strokeColor=#82b366;" vertex="1" parent="1">
          <mxGeometry x="880" y="320" width="80" height="80" as="geometry" />
        </mxCell>
        <mxCell id="55U_5O9v7u5vhaTBd-zU-34" value="" style="rounded=0;whiteSpace=wrap;html=1;fillColor=#d5e8d4;strokeColor=#82b366;" vertex="1" parent="1">
          <mxGeometry x="960" y="320" width="80" height="80" as="geometry" />
        </mxCell>
        <mxCell id="55U_5O9v7u5vhaTBd-zU-35" value="" style="rounded=0;whiteSpace=wrap;html=1;fillColor=#d5e8d4;strokeColor=#82b366;" vertex="1" parent="1">
          <mxGeometry x="880" y="400" width="80" height="80" as="geometry" />
        </mxCell>
        <mxCell id="55U_5O9v7u5vhaTBd-zU-36" value="" style="rounded=0;whiteSpace=wrap;html=1;fillColor=#d5e8d4;strokeColor=#82b366;" vertex="1" parent="1">
          <mxGeometry x="960" y="400" width="80" height="80" as="geometry" />
        </mxCell>
        <mxCell id="55U_5O9v7u5vhaTBd-zU-37" value="" style="rounded=0;whiteSpace=wrap;html=1;fillColor=#d5e8d4;strokeColor=#82b366;" vertex="1" parent="1">
          <mxGeometry x="1040" y="320" width="80" height="80" as="geometry" />
        </mxCell>
        <mxCell id="55U_5O9v7u5vhaTBd-zU-38" value="" style="rounded=0;whiteSpace=wrap;html=1;fillColor=#d5e8d4;strokeColor=#82b366;" vertex="1" parent="1">
          <mxGeometry x="1120" y="320" width="80" height="80" as="geometry" />
        </mxCell>
        <mxCell id="55U_5O9v7u5vhaTBd-zU-39" value="" style="rounded=0;whiteSpace=wrap;html=1;fillColor=#d5e8d4;strokeColor=#82b366;" vertex="1" parent="1">
          <mxGeometry x="1040" y="400" width="80" height="80" as="geometry" />
        </mxCell>
        <mxCell id="55U_5O9v7u5vhaTBd-zU-40" value="" style="rounded=0;whiteSpace=wrap;html=1;fillColor=#d5e8d4;strokeColor=#82b366;" vertex="1" parent="1">
          <mxGeometry x="1120" y="400" width="80" height="80" as="geometry" />
        </mxCell>
        <mxCell id="55U_5O9v7u5vhaTBd-zU-41" value="" style="rounded=0;whiteSpace=wrap;html=1;fillColor=#d5e8d4;strokeColor=#82b366;" vertex="1" parent="1">
          <mxGeometry x="880" y="480" width="80" height="80" as="geometry" />
        </mxCell>
        <mxCell id="55U_5O9v7u5vhaTBd-zU-42" value="" style="rounded=0;whiteSpace=wrap;html=1;fillColor=#d5e8d4;strokeColor=#82b366;" vertex="1" parent="1">
          <mxGeometry x="960" y="480" width="80" height="80" as="geometry" />
        </mxCell>
        <mxCell id="55U_5O9v7u5vhaTBd-zU-43" value="" style="rounded=0;whiteSpace=wrap;html=1;fillColor=#d5e8d4;strokeColor=#82b366;" vertex="1" parent="1">
          <mxGeometry x="880" y="560" width="80" height="80" as="geometry" />
        </mxCell>
        <mxCell id="55U_5O9v7u5vhaTBd-zU-44" value="" style="rounded=0;whiteSpace=wrap;html=1;fillColor=#d5e8d4;strokeColor=#82b366;" vertex="1" parent="1">
          <mxGeometry x="960" y="560" width="80" height="80" as="geometry" />
        </mxCell>
        <mxCell id="55U_5O9v7u5vhaTBd-zU-45" value="" style="rounded=0;whiteSpace=wrap;html=1;fillColor=#d5e8d4;strokeColor=#82b366;" vertex="1" parent="1">
          <mxGeometry x="1040" y="480" width="80" height="80" as="geometry" />
        </mxCell>
        <mxCell id="55U_5O9v7u5vhaTBd-zU-46" value="" style="rounded=0;whiteSpace=wrap;html=1;fillColor=#d5e8d4;strokeColor=#82b366;" vertex="1" parent="1">
          <mxGeometry x="1120" y="480" width="80" height="80" as="geometry" />
        </mxCell>
        <mxCell id="55U_5O9v7u5vhaTBd-zU-47" value="" style="rounded=0;whiteSpace=wrap;html=1;fillColor=#d5e8d4;strokeColor=#82b366;" vertex="1" parent="1">
          <mxGeometry x="1040" y="560" width="80" height="80" as="geometry" />
        </mxCell>
        <mxCell id="55U_5O9v7u5vhaTBd-zU-48" value="" style="rounded=0;whiteSpace=wrap;html=1;fillColor=#d5e8d4;strokeColor=#82b366;" vertex="1" parent="1">
          <mxGeometry x="1120" y="560" width="80" height="80" as="geometry" />
        </mxCell>
        <mxCell id="55U_5O9v7u5vhaTBd-zU-49" value="" style="rounded=0;whiteSpace=wrap;html=1;fillColor=#e1d5e7;strokeColor=#9673a6;" vertex="1" parent="1">
          <mxGeometry x="1200" y="320" width="80" height="80" as="geometry" />
        </mxCell>
        <mxCell id="55U_5O9v7u5vhaTBd-zU-50" value="" style="rounded=0;whiteSpace=wrap;html=1;fillColor=#e1d5e7;strokeColor=#9673a6;" vertex="1" parent="1">
          <mxGeometry x="1280" y="320" width="80" height="80" as="geometry" />
        </mxCell>
        <mxCell id="55U_5O9v7u5vhaTBd-zU-51" value="" style="rounded=0;whiteSpace=wrap;html=1;fillColor=#e1d5e7;strokeColor=#9673a6;" vertex="1" parent="1">
          <mxGeometry x="1200" y="400" width="80" height="80" as="geometry" />
        </mxCell>
        <mxCell id="55U_5O9v7u5vhaTBd-zU-52" value="" style="rounded=0;whiteSpace=wrap;html=1;fillColor=#e1d5e7;strokeColor=#9673a6;" vertex="1" parent="1">
          <mxGeometry x="1280" y="400" width="80" height="80" as="geometry" />
        </mxCell>
        <mxCell id="55U_5O9v7u5vhaTBd-zU-53" value="" style="rounded=0;whiteSpace=wrap;html=1;fillColor=#e1d5e7;strokeColor=#9673a6;" vertex="1" parent="1">
          <mxGeometry x="1360" y="320" width="80" height="80" as="geometry" />
        </mxCell>
        <mxCell id="55U_5O9v7u5vhaTBd-zU-54" value="" style="rounded=0;whiteSpace=wrap;html=1;fillColor=#e1d5e7;strokeColor=#9673a6;" vertex="1" parent="1">
          <mxGeometry x="1440" y="320" width="80" height="80" as="geometry" />
        </mxCell>
        <mxCell id="55U_5O9v7u5vhaTBd-zU-55" value="" style="rounded=0;whiteSpace=wrap;html=1;fillColor=#e1d5e7;strokeColor=#9673a6;" vertex="1" parent="1">
          <mxGeometry x="1360" y="400" width="80" height="80" as="geometry" />
        </mxCell>
        <mxCell id="55U_5O9v7u5vhaTBd-zU-56" value="" style="rounded=0;whiteSpace=wrap;html=1;fillColor=#e1d5e7;strokeColor=#9673a6;" vertex="1" parent="1">
          <mxGeometry x="1440" y="400" width="80" height="80" as="geometry" />
        </mxCell>
        <mxCell id="55U_5O9v7u5vhaTBd-zU-57" value="" style="rounded=0;whiteSpace=wrap;html=1;fillColor=#e1d5e7;strokeColor=#9673a6;" vertex="1" parent="1">
          <mxGeometry x="1200" y="480" width="80" height="80" as="geometry" />
        </mxCell>
        <mxCell id="55U_5O9v7u5vhaTBd-zU-58" value="" style="rounded=0;whiteSpace=wrap;html=1;fillColor=#e1d5e7;strokeColor=#9673a6;" vertex="1" parent="1">
          <mxGeometry x="1280" y="480" width="80" height="80" as="geometry" />
        </mxCell>
        <mxCell id="55U_5O9v7u5vhaTBd-zU-59" value="" style="rounded=0;whiteSpace=wrap;html=1;fillColor=#e1d5e7;strokeColor=#9673a6;" vertex="1" parent="1">
          <mxGeometry x="1200" y="560" width="80" height="80" as="geometry" />
        </mxCell>
        <mxCell id="55U_5O9v7u5vhaTBd-zU-60" value="" style="rounded=0;whiteSpace=wrap;html=1;fillColor=#e1d5e7;strokeColor=#9673a6;" vertex="1" parent="1">
          <mxGeometry x="1280" y="560" width="80" height="80" as="geometry" />
        </mxCell>
        <mxCell id="55U_5O9v7u5vhaTBd-zU-61" value="" style="rounded=0;whiteSpace=wrap;html=1;fillColor=#e1d5e7;strokeColor=#9673a6;" vertex="1" parent="1">
          <mxGeometry x="1360" y="480" width="80" height="80" as="geometry" />
        </mxCell>
        <mxCell id="55U_5O9v7u5vhaTBd-zU-62" value="" style="rounded=0;whiteSpace=wrap;html=1;fillColor=#e1d5e7;strokeColor=#9673a6;" vertex="1" parent="1">
          <mxGeometry x="1440" y="480" width="80" height="80" as="geometry" />
        </mxCell>
        <mxCell id="55U_5O9v7u5vhaTBd-zU-63" value="" style="rounded=0;whiteSpace=wrap;html=1;fillColor=#e1d5e7;strokeColor=#9673a6;" vertex="1" parent="1">
          <mxGeometry x="1360" y="560" width="80" height="80" as="geometry" />
        </mxCell>
        <mxCell id="55U_5O9v7u5vhaTBd-zU-64" value="" style="rounded=0;whiteSpace=wrap;html=1;fillColor=#e1d5e7;strokeColor=#9673a6;" vertex="1" parent="1">
          <mxGeometry x="1440" y="560" width="80" height="80" as="geometry" />
        </mxCell>
        <mxCell id="55U_5O9v7u5vhaTBd-zU-65" value="" style="endArrow=none;dashed=1;html=1;rounded=0;strokeWidth=6;dashPattern=1 4;fillColor=#ffe6cc;strokeColor=#d79b00;" edge="1" parent="1">
          <mxGeometry width="50" height="50" relative="1" as="geometry">
            <mxPoint x="720" y="480" as="sourcePoint" />
            <mxPoint x="840" y="480" as="targetPoint" />
          </mxGeometry>
        </mxCell>
        <mxCell id="55U_5O9v7u5vhaTBd-zU-66" value="" style="rounded=0;whiteSpace=wrap;html=1;fillColor=#dae8fc;strokeColor=#6c8ebf;" vertex="1" parent="1">
          <mxGeometry x="1720" y="-240" width="80" height="80" as="geometry" />
        </mxCell>
        <mxCell id="55U_5O9v7u5vhaTBd-zU-67" value="" style="rounded=0;whiteSpace=wrap;html=1;fillColor=#dae8fc;strokeColor=#6c8ebf;" vertex="1" parent="1">
          <mxGeometry x="1800" y="-240" width="80" height="80" as="geometry" />
        </mxCell>
        <mxCell id="55U_5O9v7u5vhaTBd-zU-68" value="" style="rounded=0;whiteSpace=wrap;html=1;fillColor=#dae8fc;strokeColor=#6c8ebf;" vertex="1" parent="1">
          <mxGeometry x="1720" y="-160" width="80" height="80" as="geometry" />
        </mxCell>
        <mxCell id="55U_5O9v7u5vhaTBd-zU-69" value="" style="rounded=0;whiteSpace=wrap;html=1;fillColor=#dae8fc;strokeColor=#6c8ebf;" vertex="1" parent="1">
          <mxGeometry x="1800" y="-160" width="80" height="80" as="geometry" />
        </mxCell>
        <mxCell id="55U_5O9v7u5vhaTBd-zU-70" value="" style="rounded=0;whiteSpace=wrap;html=1;fillColor=#dae8fc;strokeColor=#6c8ebf;" vertex="1" parent="1">
          <mxGeometry x="1880" y="-240" width="80" height="80" as="geometry" />
        </mxCell>
        <mxCell id="55U_5O9v7u5vhaTBd-zU-71" value="" style="rounded=0;whiteSpace=wrap;html=1;fillColor=#dae8fc;strokeColor=#6c8ebf;" vertex="1" parent="1">
          <mxGeometry x="1960" y="-240" width="80" height="80" as="geometry" />
        </mxCell>
        <mxCell id="55U_5O9v7u5vhaTBd-zU-72" value="" style="rounded=0;whiteSpace=wrap;html=1;fillColor=#dae8fc;strokeColor=#6c8ebf;" vertex="1" parent="1">
          <mxGeometry x="1880" y="-160" width="80" height="80" as="geometry" />
        </mxCell>
        <mxCell id="55U_5O9v7u5vhaTBd-zU-73" value="" style="rounded=0;whiteSpace=wrap;html=1;fillColor=#dae8fc;strokeColor=#6c8ebf;" vertex="1" parent="1">
          <mxGeometry x="1960" y="-160" width="80" height="80" as="geometry" />
        </mxCell>
        <mxCell id="55U_5O9v7u5vhaTBd-zU-74" value="" style="rounded=0;whiteSpace=wrap;html=1;fillColor=#dae8fc;strokeColor=#6c8ebf;" vertex="1" parent="1">
          <mxGeometry x="1720" y="-80" width="80" height="80" as="geometry" />
        </mxCell>
        <mxCell id="55U_5O9v7u5vhaTBd-zU-75" value="" style="rounded=0;whiteSpace=wrap;html=1;fillColor=#dae8fc;strokeColor=#6c8ebf;" vertex="1" parent="1">
          <mxGeometry x="1800" y="-80" width="80" height="80" as="geometry" />
        </mxCell>
        <mxCell id="55U_5O9v7u5vhaTBd-zU-76" value="" style="rounded=0;whiteSpace=wrap;html=1;fillColor=#dae8fc;strokeColor=#6c8ebf;" vertex="1" parent="1">
          <mxGeometry x="1720" width="80" height="80" as="geometry" />
        </mxCell>
        <mxCell id="55U_5O9v7u5vhaTBd-zU-77" value="" style="rounded=0;whiteSpace=wrap;html=1;fillColor=#dae8fc;strokeColor=#6c8ebf;" vertex="1" parent="1">
          <mxGeometry x="1800" width="80" height="80" as="geometry" />
        </mxCell>
        <mxCell id="55U_5O9v7u5vhaTBd-zU-78" value="" style="rounded=0;whiteSpace=wrap;html=1;fillColor=#dae8fc;strokeColor=#6c8ebf;" vertex="1" parent="1">
          <mxGeometry x="1880" y="-80" width="80" height="80" as="geometry" />
        </mxCell>
        <mxCell id="55U_5O9v7u5vhaTBd-zU-79" value="" style="rounded=0;whiteSpace=wrap;html=1;fillColor=#dae8fc;strokeColor=#6c8ebf;" vertex="1" parent="1">
          <mxGeometry x="1960" y="-80" width="80" height="80" as="geometry" />
        </mxCell>
        <mxCell id="55U_5O9v7u5vhaTBd-zU-80" value="" style="rounded=0;whiteSpace=wrap;html=1;fillColor=#dae8fc;strokeColor=#6c8ebf;" vertex="1" parent="1">
          <mxGeometry x="1880" width="80" height="80" as="geometry" />
        </mxCell>
        <mxCell id="55U_5O9v7u5vhaTBd-zU-81" value="" style="rounded=0;whiteSpace=wrap;html=1;fillColor=#dae8fc;strokeColor=#6c8ebf;" vertex="1" parent="1">
          <mxGeometry x="1960" width="80" height="80" as="geometry" />
        </mxCell>
        <mxCell id="55U_5O9v7u5vhaTBd-zU-82" value="" style="rounded=0;whiteSpace=wrap;html=1;fillColor=#dae8fc;strokeColor=#6c8ebf;" vertex="1" parent="1">
          <mxGeometry x="2200" y="-240" width="80" height="80" as="geometry" />
        </mxCell>
        <mxCell id="55U_5O9v7u5vhaTBd-zU-83" value="" style="rounded=0;whiteSpace=wrap;html=1;fillColor=#dae8fc;strokeColor=#6c8ebf;" vertex="1" parent="1">
          <mxGeometry x="2280" y="-240" width="80" height="80" as="geometry" />
        </mxCell>
        <mxCell id="55U_5O9v7u5vhaTBd-zU-84" value="" style="rounded=0;whiteSpace=wrap;html=1;fillColor=#dae8fc;strokeColor=#6c8ebf;" vertex="1" parent="1">
          <mxGeometry x="2200" y="-160" width="80" height="80" as="geometry" />
        </mxCell>
        <mxCell id="55U_5O9v7u5vhaTBd-zU-85" value="" style="rounded=0;whiteSpace=wrap;html=1;fillColor=#dae8fc;strokeColor=#6c8ebf;" vertex="1" parent="1">
          <mxGeometry x="2280" y="-160" width="80" height="80" as="geometry" />
        </mxCell>
        <mxCell id="55U_5O9v7u5vhaTBd-zU-86" value="" style="rounded=0;whiteSpace=wrap;html=1;fillColor=#dae8fc;strokeColor=#6c8ebf;" vertex="1" parent="1">
          <mxGeometry x="2360" y="-240" width="80" height="80" as="geometry" />
        </mxCell>
        <mxCell id="55U_5O9v7u5vhaTBd-zU-87" value="" style="rounded=0;whiteSpace=wrap;html=1;fillColor=#dae8fc;strokeColor=#6c8ebf;" vertex="1" parent="1">
          <mxGeometry x="2440" y="-240" width="80" height="80" as="geometry" />
        </mxCell>
        <mxCell id="55U_5O9v7u5vhaTBd-zU-88" value="" style="rounded=0;whiteSpace=wrap;html=1;fillColor=#dae8fc;strokeColor=#6c8ebf;" vertex="1" parent="1">
          <mxGeometry x="2360" y="-160" width="80" height="80" as="geometry" />
        </mxCell>
        <mxCell id="55U_5O9v7u5vhaTBd-zU-89" value="" style="rounded=0;whiteSpace=wrap;html=1;fillColor=#dae8fc;strokeColor=#6c8ebf;" vertex="1" parent="1">
          <mxGeometry x="2440" y="-160" width="80" height="80" as="geometry" />
        </mxCell>
        <mxCell id="55U_5O9v7u5vhaTBd-zU-90" value="" style="rounded=0;whiteSpace=wrap;html=1;fillColor=#dae8fc;strokeColor=#6c8ebf;" vertex="1" parent="1">
          <mxGeometry x="2200" y="-80" width="80" height="80" as="geometry" />
        </mxCell>
        <mxCell id="55U_5O9v7u5vhaTBd-zU-91" value="" style="rounded=0;whiteSpace=wrap;html=1;fillColor=#dae8fc;strokeColor=#6c8ebf;" vertex="1" parent="1">
          <mxGeometry x="2280" y="-80" width="80" height="80" as="geometry" />
        </mxCell>
        <mxCell id="55U_5O9v7u5vhaTBd-zU-92" value="" style="rounded=0;whiteSpace=wrap;html=1;fillColor=#dae8fc;strokeColor=#6c8ebf;" vertex="1" parent="1">
          <mxGeometry x="2200" width="80" height="80" as="geometry" />
        </mxCell>
        <mxCell id="55U_5O9v7u5vhaTBd-zU-93" value="" style="rounded=0;whiteSpace=wrap;html=1;fillColor=#dae8fc;strokeColor=#6c8ebf;" vertex="1" parent="1">
          <mxGeometry x="2280" width="80" height="80" as="geometry" />
        </mxCell>
        <mxCell id="55U_5O9v7u5vhaTBd-zU-94" value="" style="rounded=0;whiteSpace=wrap;html=1;fillColor=#dae8fc;strokeColor=#6c8ebf;" vertex="1" parent="1">
          <mxGeometry x="2360" y="-80" width="80" height="80" as="geometry" />
        </mxCell>
        <mxCell id="55U_5O9v7u5vhaTBd-zU-95" value="" style="rounded=0;whiteSpace=wrap;html=1;fillColor=#dae8fc;strokeColor=#6c8ebf;" vertex="1" parent="1">
          <mxGeometry x="2440" y="-80" width="80" height="80" as="geometry" />
        </mxCell>
        <mxCell id="55U_5O9v7u5vhaTBd-zU-96" value="" style="rounded=0;whiteSpace=wrap;html=1;fillColor=#dae8fc;strokeColor=#6c8ebf;" vertex="1" parent="1">
          <mxGeometry x="2360" width="80" height="80" as="geometry" />
        </mxCell>
        <mxCell id="55U_5O9v7u5vhaTBd-zU-97" value="" style="rounded=0;whiteSpace=wrap;html=1;fillColor=#dae8fc;strokeColor=#6c8ebf;" vertex="1" parent="1">
          <mxGeometry x="2440" width="80" height="80" as="geometry" />
        </mxCell>
        <mxCell id="55U_5O9v7u5vhaTBd-zU-98" value="" style="endArrow=none;dashed=1;html=1;rounded=0;strokeWidth=6;dashPattern=1 4;fillColor=#dae8fc;strokeColor=#6c8ebf;" edge="1" parent="1">
          <mxGeometry width="50" height="50" relative="1" as="geometry">
            <mxPoint x="2065" y="-81.04999999999995" as="sourcePoint" />
            <mxPoint x="2185" y="-81.04999999999995" as="targetPoint" />
          </mxGeometry>
        </mxCell>
        <mxCell id="55U_5O9v7u5vhaTBd-zU-99" value="" style="rounded=0;whiteSpace=wrap;html=1;fillColor=#dae8fc;strokeColor=#6c8ebf;" vertex="1" parent="1">
          <mxGeometry x="40" y="760" width="80" height="80" as="geometry" />
        </mxCell>
        <mxCell id="55U_5O9v7u5vhaTBd-zU-100" value="" style="rounded=0;whiteSpace=wrap;html=1;fillColor=#dae8fc;strokeColor=#6c8ebf;" vertex="1" parent="1">
          <mxGeometry x="120" y="760" width="80" height="80" as="geometry" />
        </mxCell>
        <mxCell id="55U_5O9v7u5vhaTBd-zU-101" value="" style="rounded=0;whiteSpace=wrap;html=1;fillColor=#dae8fc;strokeColor=#6c8ebf;" vertex="1" parent="1">
          <mxGeometry x="40" y="840" width="80" height="80" as="geometry" />
        </mxCell>
        <mxCell id="55U_5O9v7u5vhaTBd-zU-102" value="" style="rounded=0;whiteSpace=wrap;html=1;fillColor=#dae8fc;strokeColor=#6c8ebf;" vertex="1" parent="1">
          <mxGeometry x="120" y="840" width="80" height="80" as="geometry" />
        </mxCell>
        <mxCell id="55U_5O9v7u5vhaTBd-zU-103" value="" style="rounded=0;whiteSpace=wrap;html=1;fillColor=#dae8fc;strokeColor=#6c8ebf;" vertex="1" parent="1">
          <mxGeometry x="200" y="760" width="80" height="80" as="geometry" />
        </mxCell>
        <mxCell id="55U_5O9v7u5vhaTBd-zU-104" value="" style="rounded=0;whiteSpace=wrap;html=1;fillColor=#dae8fc;strokeColor=#6c8ebf;" vertex="1" parent="1">
          <mxGeometry x="280" y="760" width="80" height="80" as="geometry" />
        </mxCell>
        <mxCell id="55U_5O9v7u5vhaTBd-zU-105" value="" style="rounded=0;whiteSpace=wrap;html=1;fillColor=#dae8fc;strokeColor=#6c8ebf;" vertex="1" parent="1">
          <mxGeometry x="200" y="840" width="80" height="80" as="geometry" />
        </mxCell>
        <mxCell id="55U_5O9v7u5vhaTBd-zU-106" value="" style="rounded=0;whiteSpace=wrap;html=1;fillColor=#dae8fc;strokeColor=#6c8ebf;" vertex="1" parent="1">
          <mxGeometry x="280" y="840" width="80" height="80" as="geometry" />
        </mxCell>
        <mxCell id="55U_5O9v7u5vhaTBd-zU-107" value="" style="rounded=0;whiteSpace=wrap;html=1;fillColor=#dae8fc;strokeColor=#6c8ebf;" vertex="1" parent="1">
          <mxGeometry x="40" y="920" width="80" height="80" as="geometry" />
        </mxCell>
        <mxCell id="55U_5O9v7u5vhaTBd-zU-108" value="" style="rounded=0;whiteSpace=wrap;html=1;fillColor=#dae8fc;strokeColor=#6c8ebf;" vertex="1" parent="1">
          <mxGeometry x="120" y="920" width="80" height="80" as="geometry" />
        </mxCell>
        <mxCell id="55U_5O9v7u5vhaTBd-zU-109" value="" style="rounded=0;whiteSpace=wrap;html=1;fillColor=#dae8fc;strokeColor=#6c8ebf;" vertex="1" parent="1">
          <mxGeometry x="40" y="1000" width="80" height="80" as="geometry" />
        </mxCell>
        <mxCell id="55U_5O9v7u5vhaTBd-zU-110" value="" style="rounded=0;whiteSpace=wrap;html=1;fillColor=#dae8fc;strokeColor=#6c8ebf;" vertex="1" parent="1">
          <mxGeometry x="120" y="1000" width="80" height="80" as="geometry" />
        </mxCell>
        <mxCell id="55U_5O9v7u5vhaTBd-zU-111" value="" style="rounded=0;whiteSpace=wrap;html=1;fillColor=#dae8fc;strokeColor=#6c8ebf;" vertex="1" parent="1">
          <mxGeometry x="200" y="920" width="80" height="80" as="geometry" />
        </mxCell>
        <mxCell id="55U_5O9v7u5vhaTBd-zU-112" value="" style="rounded=0;whiteSpace=wrap;html=1;fillColor=#dae8fc;strokeColor=#6c8ebf;" vertex="1" parent="1">
          <mxGeometry x="280" y="920" width="80" height="80" as="geometry" />
        </mxCell>
        <mxCell id="55U_5O9v7u5vhaTBd-zU-113" value="" style="rounded=0;whiteSpace=wrap;html=1;fillColor=#dae8fc;strokeColor=#6c8ebf;" vertex="1" parent="1">
          <mxGeometry x="200" y="1000" width="80" height="80" as="geometry" />
        </mxCell>
        <mxCell id="55U_5O9v7u5vhaTBd-zU-114" value="" style="rounded=0;whiteSpace=wrap;html=1;fillColor=#dae8fc;strokeColor=#6c8ebf;" vertex="1" parent="1">
          <mxGeometry x="280" y="1000" width="80" height="80" as="geometry" />
        </mxCell>
        <mxCell id="55U_5O9v7u5vhaTBd-zU-115" value="" style="rounded=0;whiteSpace=wrap;html=1;fillColor=#ffe6cc;strokeColor=#d79b00;" vertex="1" parent="1">
          <mxGeometry x="360" y="760" width="80" height="80" as="geometry" />
        </mxCell>
        <mxCell id="55U_5O9v7u5vhaTBd-zU-116" value="" style="rounded=0;whiteSpace=wrap;html=1;fillColor=#ffe6cc;strokeColor=#d79b00;" vertex="1" parent="1">
          <mxGeometry x="440" y="760" width="80" height="80" as="geometry" />
        </mxCell>
        <mxCell id="55U_5O9v7u5vhaTBd-zU-117" value="" style="rounded=0;whiteSpace=wrap;html=1;fillColor=#ffe6cc;strokeColor=#d79b00;" vertex="1" parent="1">
          <mxGeometry x="360" y="840" width="80" height="80" as="geometry" />
        </mxCell>
        <mxCell id="55U_5O9v7u5vhaTBd-zU-118" value="" style="rounded=0;whiteSpace=wrap;html=1;fillColor=#ffe6cc;strokeColor=#d79b00;" vertex="1" parent="1">
          <mxGeometry x="440" y="840" width="80" height="80" as="geometry" />
        </mxCell>
        <mxCell id="55U_5O9v7u5vhaTBd-zU-119" value="" style="rounded=0;whiteSpace=wrap;html=1;fillColor=#ffe6cc;strokeColor=#d79b00;" vertex="1" parent="1">
          <mxGeometry x="520" y="760" width="80" height="80" as="geometry" />
        </mxCell>
        <mxCell id="55U_5O9v7u5vhaTBd-zU-120" value="" style="rounded=0;whiteSpace=wrap;html=1;fillColor=#ffe6cc;strokeColor=#d79b00;" vertex="1" parent="1">
          <mxGeometry x="600" y="760" width="80" height="80" as="geometry" />
        </mxCell>
        <mxCell id="55U_5O9v7u5vhaTBd-zU-121" value="" style="rounded=0;whiteSpace=wrap;html=1;fillColor=#ffe6cc;strokeColor=#d79b00;" vertex="1" parent="1">
          <mxGeometry x="520" y="840" width="80" height="80" as="geometry" />
        </mxCell>
        <mxCell id="55U_5O9v7u5vhaTBd-zU-122" value="" style="rounded=0;whiteSpace=wrap;html=1;fillColor=#ffe6cc;strokeColor=#d79b00;" vertex="1" parent="1">
          <mxGeometry x="600" y="840" width="80" height="80" as="geometry" />
        </mxCell>
        <mxCell id="55U_5O9v7u5vhaTBd-zU-123" value="" style="rounded=0;whiteSpace=wrap;html=1;fillColor=#ffe6cc;strokeColor=#d79b00;" vertex="1" parent="1">
          <mxGeometry x="360" y="920" width="80" height="80" as="geometry" />
        </mxCell>
        <mxCell id="55U_5O9v7u5vhaTBd-zU-124" value="" style="rounded=0;whiteSpace=wrap;html=1;fillColor=#ffe6cc;strokeColor=#d79b00;" vertex="1" parent="1">
          <mxGeometry x="440" y="920" width="80" height="80" as="geometry" />
        </mxCell>
        <mxCell id="55U_5O9v7u5vhaTBd-zU-125" value="" style="rounded=0;whiteSpace=wrap;html=1;fillColor=#ffe6cc;strokeColor=#d79b00;" vertex="1" parent="1">
          <mxGeometry x="360" y="1000" width="80" height="80" as="geometry" />
        </mxCell>
        <mxCell id="55U_5O9v7u5vhaTBd-zU-126" value="" style="rounded=0;whiteSpace=wrap;html=1;fillColor=#ffe6cc;strokeColor=#d79b00;" vertex="1" parent="1">
          <mxGeometry x="440" y="1000" width="80" height="80" as="geometry" />
        </mxCell>
        <mxCell id="55U_5O9v7u5vhaTBd-zU-127" value="" style="rounded=0;whiteSpace=wrap;html=1;fillColor=#ffe6cc;strokeColor=#d79b00;" vertex="1" parent="1">
          <mxGeometry x="520" y="920" width="80" height="80" as="geometry" />
        </mxCell>
        <mxCell id="55U_5O9v7u5vhaTBd-zU-128" value="" style="rounded=0;whiteSpace=wrap;html=1;fillColor=#ffe6cc;strokeColor=#d79b00;" vertex="1" parent="1">
          <mxGeometry x="600" y="920" width="80" height="80" as="geometry" />
        </mxCell>
        <mxCell id="55U_5O9v7u5vhaTBd-zU-129" value="" style="rounded=0;whiteSpace=wrap;html=1;fillColor=#ffe6cc;strokeColor=#d79b00;" vertex="1" parent="1">
          <mxGeometry x="520" y="1000" width="80" height="80" as="geometry" />
        </mxCell>
        <mxCell id="55U_5O9v7u5vhaTBd-zU-130" value="" style="rounded=0;whiteSpace=wrap;html=1;fillColor=#ffe6cc;strokeColor=#d79b00;" vertex="1" parent="1">
          <mxGeometry x="600" y="1000" width="80" height="80" as="geometry" />
        </mxCell>
        <mxCell id="55U_5O9v7u5vhaTBd-zU-131" value="" style="rounded=0;whiteSpace=wrap;html=1;fillColor=#d5e8d4;strokeColor=#82b366;" vertex="1" parent="1">
          <mxGeometry x="880" y="760" width="80" height="80" as="geometry" />
        </mxCell>
        <mxCell id="55U_5O9v7u5vhaTBd-zU-132" value="" style="rounded=0;whiteSpace=wrap;html=1;fillColor=#d5e8d4;strokeColor=#82b366;" vertex="1" parent="1">
          <mxGeometry x="960" y="760" width="80" height="80" as="geometry" />
        </mxCell>
        <mxCell id="55U_5O9v7u5vhaTBd-zU-133" value="" style="rounded=0;whiteSpace=wrap;html=1;fillColor=#d5e8d4;strokeColor=#82b366;" vertex="1" parent="1">
          <mxGeometry x="880" y="840" width="80" height="80" as="geometry" />
        </mxCell>
        <mxCell id="55U_5O9v7u5vhaTBd-zU-134" value="" style="rounded=0;whiteSpace=wrap;html=1;fillColor=#d5e8d4;strokeColor=#82b366;" vertex="1" parent="1">
          <mxGeometry x="960" y="840" width="80" height="80" as="geometry" />
        </mxCell>
        <mxCell id="55U_5O9v7u5vhaTBd-zU-135" value="" style="rounded=0;whiteSpace=wrap;html=1;fillColor=#d5e8d4;strokeColor=#82b366;" vertex="1" parent="1">
          <mxGeometry x="1040" y="760" width="80" height="80" as="geometry" />
        </mxCell>
        <mxCell id="55U_5O9v7u5vhaTBd-zU-136" value="" style="rounded=0;whiteSpace=wrap;html=1;fillColor=#d5e8d4;strokeColor=#82b366;" vertex="1" parent="1">
          <mxGeometry x="1120" y="760" width="80" height="80" as="geometry" />
        </mxCell>
        <mxCell id="55U_5O9v7u5vhaTBd-zU-137" value="" style="rounded=0;whiteSpace=wrap;html=1;fillColor=#d5e8d4;strokeColor=#82b366;" vertex="1" parent="1">
          <mxGeometry x="1040" y="840" width="80" height="80" as="geometry" />
        </mxCell>
        <mxCell id="55U_5O9v7u5vhaTBd-zU-138" value="" style="rounded=0;whiteSpace=wrap;html=1;fillColor=#d5e8d4;strokeColor=#82b366;" vertex="1" parent="1">
          <mxGeometry x="1120" y="840" width="80" height="80" as="geometry" />
        </mxCell>
        <mxCell id="55U_5O9v7u5vhaTBd-zU-139" value="" style="rounded=0;whiteSpace=wrap;html=1;fillColor=#d5e8d4;strokeColor=#82b366;" vertex="1" parent="1">
          <mxGeometry x="880" y="920" width="80" height="80" as="geometry" />
        </mxCell>
        <mxCell id="55U_5O9v7u5vhaTBd-zU-140" value="" style="rounded=0;whiteSpace=wrap;html=1;fillColor=#d5e8d4;strokeColor=#82b366;" vertex="1" parent="1">
          <mxGeometry x="960" y="920" width="80" height="80" as="geometry" />
        </mxCell>
        <mxCell id="55U_5O9v7u5vhaTBd-zU-141" value="" style="rounded=0;whiteSpace=wrap;html=1;fillColor=#d5e8d4;strokeColor=#82b366;" vertex="1" parent="1">
          <mxGeometry x="880" y="1000" width="80" height="80" as="geometry" />
        </mxCell>
        <mxCell id="55U_5O9v7u5vhaTBd-zU-142" value="" style="rounded=0;whiteSpace=wrap;html=1;fillColor=#d5e8d4;strokeColor=#82b366;" vertex="1" parent="1">
          <mxGeometry x="960" y="1000" width="80" height="80" as="geometry" />
        </mxCell>
        <mxCell id="55U_5O9v7u5vhaTBd-zU-143" value="" style="rounded=0;whiteSpace=wrap;html=1;fillColor=#d5e8d4;strokeColor=#82b366;" vertex="1" parent="1">
          <mxGeometry x="1040" y="920" width="80" height="80" as="geometry" />
        </mxCell>
        <mxCell id="55U_5O9v7u5vhaTBd-zU-144" value="" style="rounded=0;whiteSpace=wrap;html=1;fillColor=#d5e8d4;strokeColor=#82b366;" vertex="1" parent="1">
          <mxGeometry x="1120" y="920" width="80" height="80" as="geometry" />
        </mxCell>
        <mxCell id="55U_5O9v7u5vhaTBd-zU-145" value="" style="rounded=0;whiteSpace=wrap;html=1;fillColor=#d5e8d4;strokeColor=#82b366;" vertex="1" parent="1">
          <mxGeometry x="1040" y="1000" width="80" height="80" as="geometry" />
        </mxCell>
        <mxCell id="55U_5O9v7u5vhaTBd-zU-146" value="" style="rounded=0;whiteSpace=wrap;html=1;fillColor=#d5e8d4;strokeColor=#82b366;" vertex="1" parent="1">
          <mxGeometry x="1120" y="1000" width="80" height="80" as="geometry" />
        </mxCell>
        <mxCell id="55U_5O9v7u5vhaTBd-zU-147" value="" style="rounded=0;whiteSpace=wrap;html=1;fillColor=#e1d5e7;strokeColor=#9673a6;" vertex="1" parent="1">
          <mxGeometry x="1200" y="760" width="80" height="80" as="geometry" />
        </mxCell>
        <mxCell id="55U_5O9v7u5vhaTBd-zU-148" value="" style="rounded=0;whiteSpace=wrap;html=1;fillColor=#e1d5e7;strokeColor=#9673a6;" vertex="1" parent="1">
          <mxGeometry x="1280" y="760" width="80" height="80" as="geometry" />
        </mxCell>
        <mxCell id="55U_5O9v7u5vhaTBd-zU-149" value="" style="rounded=0;whiteSpace=wrap;html=1;fillColor=#e1d5e7;strokeColor=#9673a6;" vertex="1" parent="1">
          <mxGeometry x="1200" y="840" width="80" height="80" as="geometry" />
        </mxCell>
        <mxCell id="55U_5O9v7u5vhaTBd-zU-150" value="" style="rounded=0;whiteSpace=wrap;html=1;fillColor=#e1d5e7;strokeColor=#9673a6;" vertex="1" parent="1">
          <mxGeometry x="1280" y="840" width="80" height="80" as="geometry" />
        </mxCell>
        <mxCell id="55U_5O9v7u5vhaTBd-zU-151" value="" style="rounded=0;whiteSpace=wrap;html=1;fillColor=#e1d5e7;strokeColor=#9673a6;" vertex="1" parent="1">
          <mxGeometry x="1360" y="760" width="80" height="80" as="geometry" />
        </mxCell>
        <mxCell id="55U_5O9v7u5vhaTBd-zU-152" value="" style="rounded=0;whiteSpace=wrap;html=1;fillColor=#e1d5e7;strokeColor=#9673a6;" vertex="1" parent="1">
          <mxGeometry x="1440" y="760" width="80" height="80" as="geometry" />
        </mxCell>
        <mxCell id="55U_5O9v7u5vhaTBd-zU-153" value="" style="rounded=0;whiteSpace=wrap;html=1;fillColor=#e1d5e7;strokeColor=#9673a6;" vertex="1" parent="1">
          <mxGeometry x="1360" y="840" width="80" height="80" as="geometry" />
        </mxCell>
        <mxCell id="55U_5O9v7u5vhaTBd-zU-154" value="" style="rounded=0;whiteSpace=wrap;html=1;fillColor=#e1d5e7;strokeColor=#9673a6;" vertex="1" parent="1">
          <mxGeometry x="1440" y="840" width="80" height="80" as="geometry" />
        </mxCell>
        <mxCell id="55U_5O9v7u5vhaTBd-zU-155" value="" style="rounded=0;whiteSpace=wrap;html=1;fillColor=#e1d5e7;strokeColor=#9673a6;" vertex="1" parent="1">
          <mxGeometry x="1200" y="920" width="80" height="80" as="geometry" />
        </mxCell>
        <mxCell id="55U_5O9v7u5vhaTBd-zU-156" value="" style="rounded=0;whiteSpace=wrap;html=1;fillColor=#e1d5e7;strokeColor=#9673a6;" vertex="1" parent="1">
          <mxGeometry x="1280" y="920" width="80" height="80" as="geometry" />
        </mxCell>
        <mxCell id="55U_5O9v7u5vhaTBd-zU-157" value="" style="rounded=0;whiteSpace=wrap;html=1;fillColor=#e1d5e7;strokeColor=#9673a6;" vertex="1" parent="1">
          <mxGeometry x="1200" y="1000" width="80" height="80" as="geometry" />
        </mxCell>
        <mxCell id="55U_5O9v7u5vhaTBd-zU-158" value="" style="rounded=0;whiteSpace=wrap;html=1;fillColor=#e1d5e7;strokeColor=#9673a6;" vertex="1" parent="1">
          <mxGeometry x="1280" y="1000" width="80" height="80" as="geometry" />
        </mxCell>
        <mxCell id="55U_5O9v7u5vhaTBd-zU-159" value="" style="rounded=0;whiteSpace=wrap;html=1;fillColor=#e1d5e7;strokeColor=#9673a6;" vertex="1" parent="1">
          <mxGeometry x="1360" y="920" width="80" height="80" as="geometry" />
        </mxCell>
        <mxCell id="55U_5O9v7u5vhaTBd-zU-160" value="" style="rounded=0;whiteSpace=wrap;html=1;fillColor=#e1d5e7;strokeColor=#9673a6;" vertex="1" parent="1">
          <mxGeometry x="1440" y="920" width="80" height="80" as="geometry" />
        </mxCell>
        <mxCell id="55U_5O9v7u5vhaTBd-zU-161" value="" style="rounded=0;whiteSpace=wrap;html=1;fillColor=#e1d5e7;strokeColor=#9673a6;" vertex="1" parent="1">
          <mxGeometry x="1360" y="1000" width="80" height="80" as="geometry" />
        </mxCell>
        <mxCell id="55U_5O9v7u5vhaTBd-zU-162" value="" style="rounded=0;whiteSpace=wrap;html=1;fillColor=#e1d5e7;strokeColor=#9673a6;" vertex="1" parent="1">
          <mxGeometry x="1440" y="1000" width="80" height="80" as="geometry" />
        </mxCell>
        <mxCell id="55U_5O9v7u5vhaTBd-zU-163" value="" style="endArrow=none;dashed=1;html=1;rounded=0;strokeWidth=6;dashPattern=1 4;fillColor=#ffe6cc;strokeColor=#d79b00;" edge="1" parent="1">
          <mxGeometry width="50" height="50" relative="1" as="geometry">
            <mxPoint x="720" y="920" as="sourcePoint" />
            <mxPoint x="840" y="920" as="targetPoint" />
          </mxGeometry>
        </mxCell>
        <mxCell id="55U_5O9v7u5vhaTBd-zU-164" value="" style="endArrow=none;dashed=1;html=1;rounded=0;strokeWidth=6;dashPattern=1 4;fillColor=#dae8fc;strokeColor=#6c8ebf;" edge="1" parent="1">
          <mxGeometry width="50" height="50" relative="1" as="geometry">
            <mxPoint x="360" y="660" as="sourcePoint" />
            <mxPoint x="360" y="740" as="targetPoint" />
          </mxGeometry>
        </mxCell>
        <mxCell id="55U_5O9v7u5vhaTBd-zU-165" value="" style="endArrow=none;dashed=1;html=1;rounded=0;strokeWidth=6;dashPattern=1 4;fillColor=#d5e8d4;strokeColor=#82b366;" edge="1" parent="1">
          <mxGeometry width="50" height="50" relative="1" as="geometry">
            <mxPoint x="1200" y="660" as="sourcePoint" />
            <mxPoint x="1200" y="740" as="targetPoint" />
          </mxGeometry>
        </mxCell>
        <mxCell id="55U_5O9v7u5vhaTBd-zU-166" value="" style="rounded=0;whiteSpace=wrap;html=1;fillColor=#d5e8d4;strokeColor=#82b366;" vertex="1" parent="1">
          <mxGeometry x="1720" y="-800" width="80" height="80" as="geometry" />
        </mxCell>
        <mxCell id="55U_5O9v7u5vhaTBd-zU-167" value="" style="rounded=0;whiteSpace=wrap;html=1;fillColor=#d5e8d4;strokeColor=#82b366;" vertex="1" parent="1">
          <mxGeometry x="1800" y="-800" width="80" height="80" as="geometry" />
        </mxCell>
        <mxCell id="55U_5O9v7u5vhaTBd-zU-168" value="" style="rounded=0;whiteSpace=wrap;html=1;fillColor=#d5e8d4;strokeColor=#82b366;" vertex="1" parent="1">
          <mxGeometry x="1720" y="-720" width="80" height="80" as="geometry" />
        </mxCell>
        <mxCell id="55U_5O9v7u5vhaTBd-zU-169" value="" style="rounded=0;whiteSpace=wrap;html=1;fillColor=#d5e8d4;strokeColor=#82b366;" vertex="1" parent="1">
          <mxGeometry x="1800" y="-720" width="80" height="80" as="geometry" />
        </mxCell>
        <mxCell id="55U_5O9v7u5vhaTBd-zU-170" value="" style="rounded=0;whiteSpace=wrap;html=1;fillColor=#d5e8d4;strokeColor=#82b366;" vertex="1" parent="1">
          <mxGeometry x="1880" y="-800" width="80" height="80" as="geometry" />
        </mxCell>
        <mxCell id="55U_5O9v7u5vhaTBd-zU-171" value="" style="rounded=0;whiteSpace=wrap;html=1;fillColor=#d5e8d4;strokeColor=#82b366;" vertex="1" parent="1">
          <mxGeometry x="1960" y="-800" width="80" height="80" as="geometry" />
        </mxCell>
        <mxCell id="55U_5O9v7u5vhaTBd-zU-172" value="" style="rounded=0;whiteSpace=wrap;html=1;fillColor=#d5e8d4;strokeColor=#82b366;" vertex="1" parent="1">
          <mxGeometry x="1880" y="-720" width="80" height="80" as="geometry" />
        </mxCell>
        <mxCell id="55U_5O9v7u5vhaTBd-zU-173" value="" style="rounded=0;whiteSpace=wrap;html=1;fillColor=#d5e8d4;strokeColor=#82b366;" vertex="1" parent="1">
          <mxGeometry x="1960" y="-720" width="80" height="80" as="geometry" />
        </mxCell>
        <mxCell id="55U_5O9v7u5vhaTBd-zU-174" value="" style="rounded=0;whiteSpace=wrap;html=1;fillColor=#d5e8d4;strokeColor=#82b366;" vertex="1" parent="1">
          <mxGeometry x="1720" y="-640" width="80" height="80" as="geometry" />
        </mxCell>
        <mxCell id="55U_5O9v7u5vhaTBd-zU-175" value="" style="rounded=0;whiteSpace=wrap;html=1;fillColor=#d5e8d4;strokeColor=#82b366;" vertex="1" parent="1">
          <mxGeometry x="1800" y="-640" width="80" height="80" as="geometry" />
        </mxCell>
        <mxCell id="55U_5O9v7u5vhaTBd-zU-176" value="" style="rounded=0;whiteSpace=wrap;html=1;fillColor=#d5e8d4;strokeColor=#82b366;" vertex="1" parent="1">
          <mxGeometry x="1720" y="-560" width="80" height="80" as="geometry" />
        </mxCell>
        <mxCell id="55U_5O9v7u5vhaTBd-zU-177" value="" style="rounded=0;whiteSpace=wrap;html=1;fillColor=#d5e8d4;strokeColor=#82b366;" vertex="1" parent="1">
          <mxGeometry x="1800" y="-560" width="80" height="80" as="geometry" />
        </mxCell>
        <mxCell id="55U_5O9v7u5vhaTBd-zU-178" value="" style="rounded=0;whiteSpace=wrap;html=1;fillColor=#d5e8d4;strokeColor=#82b366;" vertex="1" parent="1">
          <mxGeometry x="1880" y="-640" width="80" height="80" as="geometry" />
        </mxCell>
        <mxCell id="55U_5O9v7u5vhaTBd-zU-179" value="" style="rounded=0;whiteSpace=wrap;html=1;fillColor=#d5e8d4;strokeColor=#82b366;" vertex="1" parent="1">
          <mxGeometry x="1960" y="-640" width="80" height="80" as="geometry" />
        </mxCell>
        <mxCell id="55U_5O9v7u5vhaTBd-zU-180" value="" style="rounded=0;whiteSpace=wrap;html=1;fillColor=#d5e8d4;strokeColor=#82b366;" vertex="1" parent="1">
          <mxGeometry x="1880" y="-560" width="80" height="80" as="geometry" />
        </mxCell>
        <mxCell id="55U_5O9v7u5vhaTBd-zU-181" value="" style="rounded=0;whiteSpace=wrap;html=1;fillColor=#d5e8d4;strokeColor=#82b366;" vertex="1" parent="1">
          <mxGeometry x="1960" y="-560" width="80" height="80" as="geometry" />
        </mxCell>
        <mxCell id="55U_5O9v7u5vhaTBd-zU-182" value="" style="rounded=0;whiteSpace=wrap;html=1;fillColor=#d5e8d4;strokeColor=#82b366;" vertex="1" parent="1">
          <mxGeometry x="2200" y="-800" width="80" height="80" as="geometry" />
        </mxCell>
        <mxCell id="55U_5O9v7u5vhaTBd-zU-183" value="" style="rounded=0;whiteSpace=wrap;html=1;fillColor=#d5e8d4;strokeColor=#82b366;" vertex="1" parent="1">
          <mxGeometry x="2280" y="-800" width="80" height="80" as="geometry" />
        </mxCell>
        <mxCell id="55U_5O9v7u5vhaTBd-zU-184" value="" style="rounded=0;whiteSpace=wrap;html=1;fillColor=#d5e8d4;strokeColor=#82b366;" vertex="1" parent="1">
          <mxGeometry x="2200" y="-720" width="80" height="80" as="geometry" />
        </mxCell>
        <mxCell id="55U_5O9v7u5vhaTBd-zU-185" value="" style="rounded=0;whiteSpace=wrap;html=1;fillColor=#d5e8d4;strokeColor=#82b366;" vertex="1" parent="1">
          <mxGeometry x="2280" y="-720" width="80" height="80" as="geometry" />
        </mxCell>
        <mxCell id="55U_5O9v7u5vhaTBd-zU-186" value="" style="rounded=0;whiteSpace=wrap;html=1;fillColor=#d5e8d4;strokeColor=#82b366;" vertex="1" parent="1">
          <mxGeometry x="2360" y="-800" width="80" height="80" as="geometry" />
        </mxCell>
        <mxCell id="55U_5O9v7u5vhaTBd-zU-187" value="" style="rounded=0;whiteSpace=wrap;html=1;fillColor=#d5e8d4;strokeColor=#82b366;" vertex="1" parent="1">
          <mxGeometry x="2440" y="-800" width="80" height="80" as="geometry" />
        </mxCell>
        <mxCell id="55U_5O9v7u5vhaTBd-zU-188" value="" style="rounded=0;whiteSpace=wrap;html=1;fillColor=#d5e8d4;strokeColor=#82b366;" vertex="1" parent="1">
          <mxGeometry x="2360" y="-720" width="80" height="80" as="geometry" />
        </mxCell>
        <mxCell id="55U_5O9v7u5vhaTBd-zU-189" value="" style="rounded=0;whiteSpace=wrap;html=1;fillColor=#d5e8d4;strokeColor=#82b366;" vertex="1" parent="1">
          <mxGeometry x="2440" y="-720" width="80" height="80" as="geometry" />
        </mxCell>
        <mxCell id="55U_5O9v7u5vhaTBd-zU-190" value="" style="rounded=0;whiteSpace=wrap;html=1;fillColor=#d5e8d4;strokeColor=#82b366;" vertex="1" parent="1">
          <mxGeometry x="2200" y="-640" width="80" height="80" as="geometry" />
        </mxCell>
        <mxCell id="55U_5O9v7u5vhaTBd-zU-191" value="" style="rounded=0;whiteSpace=wrap;html=1;fillColor=#d5e8d4;strokeColor=#82b366;" vertex="1" parent="1">
          <mxGeometry x="2280" y="-640" width="80" height="80" as="geometry" />
        </mxCell>
        <mxCell id="55U_5O9v7u5vhaTBd-zU-192" value="" style="rounded=0;whiteSpace=wrap;html=1;fillColor=#d5e8d4;strokeColor=#82b366;" vertex="1" parent="1">
          <mxGeometry x="2200" y="-560" width="80" height="80" as="geometry" />
        </mxCell>
        <mxCell id="55U_5O9v7u5vhaTBd-zU-193" value="" style="rounded=0;whiteSpace=wrap;html=1;fillColor=#d5e8d4;strokeColor=#82b366;" vertex="1" parent="1">
          <mxGeometry x="2280" y="-560" width="80" height="80" as="geometry" />
        </mxCell>
        <mxCell id="55U_5O9v7u5vhaTBd-zU-194" value="" style="rounded=0;whiteSpace=wrap;html=1;fillColor=#d5e8d4;strokeColor=#82b366;" vertex="1" parent="1">
          <mxGeometry x="2360" y="-640" width="80" height="80" as="geometry" />
        </mxCell>
        <mxCell id="55U_5O9v7u5vhaTBd-zU-195" value="" style="rounded=0;whiteSpace=wrap;html=1;fillColor=#d5e8d4;strokeColor=#82b366;" vertex="1" parent="1">
          <mxGeometry x="2440" y="-640" width="80" height="80" as="geometry" />
        </mxCell>
        <mxCell id="55U_5O9v7u5vhaTBd-zU-196" value="" style="rounded=0;whiteSpace=wrap;html=1;fillColor=#d5e8d4;strokeColor=#82b366;" vertex="1" parent="1">
          <mxGeometry x="2360" y="-560" width="80" height="80" as="geometry" />
        </mxCell>
        <mxCell id="55U_5O9v7u5vhaTBd-zU-197" value="" style="rounded=0;whiteSpace=wrap;html=1;fillColor=#d5e8d4;strokeColor=#82b366;" vertex="1" parent="1">
          <mxGeometry x="2440" y="-560" width="80" height="80" as="geometry" />
        </mxCell>
        <mxCell id="55U_5O9v7u5vhaTBd-zU-198" value="" style="endArrow=none;dashed=1;html=1;rounded=0;strokeWidth=6;dashPattern=1 4;fillColor=#d5e8d4;strokeColor=#82b366;" edge="1" parent="1">
          <mxGeometry width="50" height="50" relative="1" as="geometry">
            <mxPoint x="2065" y="-641.05" as="sourcePoint" />
            <mxPoint x="2185" y="-641.05" as="targetPoint" />
          </mxGeometry>
        </mxCell>
        <mxCell id="55U_5O9v7u5vhaTBd-zU-199" value="" style="endArrow=none;dashed=1;html=1;rounded=0;strokeWidth=6;dashPattern=1 4;fillColor=#dae8fc;strokeColor=#6c8ebf;" edge="1" parent="1">
          <mxGeometry width="50" height="50" relative="1" as="geometry">
            <mxPoint x="1880" y="-400" as="sourcePoint" />
            <mxPoint x="1880" y="-320" as="targetPoint" />
          </mxGeometry>
        </mxCell>
        <mxCell id="55U_5O9v7u5vhaTBd-zU-200" value="" style="endArrow=none;dashed=1;html=1;rounded=0;strokeWidth=6;dashPattern=1 4;fillColor=#dae8fc;strokeColor=#6c8ebf;" edge="1" parent="1">
          <mxGeometry width="50" height="50" relative="1" as="geometry">
            <mxPoint x="2360" y="-400" as="sourcePoint" />
            <mxPoint x="2360" y="-320" as="targetPoint" />
          </mxGeometry>
        </mxCell>
        <mxCell id="55U_5O9v7u5vhaTBd-zU-201" value="" style="rounded=0;whiteSpace=wrap;html=1;fillColor=#f8cecc;strokeColor=#b85450;" vertex="1" parent="1">
          <mxGeometry x="1720" y="760" width="80" height="80" as="geometry" />
        </mxCell>
        <mxCell id="55U_5O9v7u5vhaTBd-zU-202" value="" style="rounded=0;whiteSpace=wrap;html=1;fillColor=#f8cecc;strokeColor=#b85450;" vertex="1" parent="1">
          <mxGeometry x="1800" y="760" width="80" height="80" as="geometry" />
        </mxCell>
        <mxCell id="55U_5O9v7u5vhaTBd-zU-203" value="" style="rounded=0;whiteSpace=wrap;html=1;fillColor=#f8cecc;strokeColor=#b85450;" vertex="1" parent="1">
          <mxGeometry x="1720" y="840" width="80" height="80" as="geometry" />
        </mxCell>
        <mxCell id="55U_5O9v7u5vhaTBd-zU-204" value="" style="rounded=0;whiteSpace=wrap;html=1;fillColor=#f8cecc;strokeColor=#b85450;" vertex="1" parent="1">
          <mxGeometry x="1800" y="840" width="80" height="80" as="geometry" />
        </mxCell>
        <mxCell id="55U_5O9v7u5vhaTBd-zU-205" value="" style="rounded=0;whiteSpace=wrap;html=1;fillColor=#f8cecc;strokeColor=#b85450;" vertex="1" parent="1">
          <mxGeometry x="1880" y="760" width="80" height="80" as="geometry" />
        </mxCell>
        <mxCell id="55U_5O9v7u5vhaTBd-zU-206" value="" style="rounded=0;whiteSpace=wrap;html=1;fillColor=#f8cecc;strokeColor=#b85450;" vertex="1" parent="1">
          <mxGeometry x="1960" y="760" width="80" height="80" as="geometry" />
        </mxCell>
        <mxCell id="55U_5O9v7u5vhaTBd-zU-207" value="" style="rounded=0;whiteSpace=wrap;html=1;fillColor=#f8cecc;strokeColor=#b85450;" vertex="1" parent="1">
          <mxGeometry x="1880" y="840" width="80" height="80" as="geometry" />
        </mxCell>
        <mxCell id="55U_5O9v7u5vhaTBd-zU-208" value="" style="rounded=0;whiteSpace=wrap;html=1;fillColor=#f8cecc;strokeColor=#b85450;" vertex="1" parent="1">
          <mxGeometry x="1960" y="840" width="80" height="80" as="geometry" />
        </mxCell>
        <mxCell id="55U_5O9v7u5vhaTBd-zU-209" value="" style="rounded=0;whiteSpace=wrap;html=1;fillColor=#f8cecc;strokeColor=#b85450;" vertex="1" parent="1">
          <mxGeometry x="1720" y="920" width="80" height="80" as="geometry" />
        </mxCell>
        <mxCell id="55U_5O9v7u5vhaTBd-zU-210" value="" style="rounded=0;whiteSpace=wrap;html=1;fillColor=#f8cecc;strokeColor=#b85450;" vertex="1" parent="1">
          <mxGeometry x="1800" y="920" width="80" height="80" as="geometry" />
        </mxCell>
        <mxCell id="55U_5O9v7u5vhaTBd-zU-211" value="" style="rounded=0;whiteSpace=wrap;html=1;fillColor=#f8cecc;strokeColor=#b85450;" vertex="1" parent="1">
          <mxGeometry x="1720" y="1000" width="80" height="80" as="geometry" />
        </mxCell>
        <mxCell id="55U_5O9v7u5vhaTBd-zU-212" value="" style="rounded=0;whiteSpace=wrap;html=1;fillColor=#f8cecc;strokeColor=#b85450;" vertex="1" parent="1">
          <mxGeometry x="1800" y="1000" width="80" height="80" as="geometry" />
        </mxCell>
        <mxCell id="55U_5O9v7u5vhaTBd-zU-213" value="" style="rounded=0;whiteSpace=wrap;html=1;fillColor=#f8cecc;strokeColor=#b85450;" vertex="1" parent="1">
          <mxGeometry x="1880" y="920" width="80" height="80" as="geometry" />
        </mxCell>
        <mxCell id="55U_5O9v7u5vhaTBd-zU-214" value="" style="rounded=0;whiteSpace=wrap;html=1;fillColor=#f8cecc;strokeColor=#b85450;" vertex="1" parent="1">
          <mxGeometry x="1960" y="920" width="80" height="80" as="geometry" />
        </mxCell>
        <mxCell id="55U_5O9v7u5vhaTBd-zU-215" value="" style="rounded=0;whiteSpace=wrap;html=1;fillColor=#f8cecc;strokeColor=#b85450;" vertex="1" parent="1">
          <mxGeometry x="1880" y="1000" width="80" height="80" as="geometry" />
        </mxCell>
        <mxCell id="55U_5O9v7u5vhaTBd-zU-216" value="" style="rounded=0;whiteSpace=wrap;html=1;fillColor=#f8cecc;strokeColor=#b85450;" vertex="1" parent="1">
          <mxGeometry x="1960" y="1000" width="80" height="80" as="geometry" />
        </mxCell>
        <mxCell id="55U_5O9v7u5vhaTBd-zU-217" value="" style="rounded=0;whiteSpace=wrap;html=1;fillColor=#f8cecc;strokeColor=#b85450;" vertex="1" parent="1">
          <mxGeometry x="2200" y="760" width="80" height="80" as="geometry" />
        </mxCell>
        <mxCell id="55U_5O9v7u5vhaTBd-zU-218" value="" style="rounded=0;whiteSpace=wrap;html=1;fillColor=#f8cecc;strokeColor=#b85450;" vertex="1" parent="1">
          <mxGeometry x="2280" y="760" width="80" height="80" as="geometry" />
        </mxCell>
        <mxCell id="55U_5O9v7u5vhaTBd-zU-219" value="" style="rounded=0;whiteSpace=wrap;html=1;fillColor=#f8cecc;strokeColor=#b85450;" vertex="1" parent="1">
          <mxGeometry x="2200" y="840" width="80" height="80" as="geometry" />
        </mxCell>
        <mxCell id="55U_5O9v7u5vhaTBd-zU-220" value="" style="rounded=0;whiteSpace=wrap;html=1;fillColor=#f8cecc;strokeColor=#b85450;" vertex="1" parent="1">
          <mxGeometry x="2280" y="840" width="80" height="80" as="geometry" />
        </mxCell>
        <mxCell id="55U_5O9v7u5vhaTBd-zU-221" value="" style="rounded=0;whiteSpace=wrap;html=1;fillColor=#f8cecc;strokeColor=#b85450;" vertex="1" parent="1">
          <mxGeometry x="2360" y="760" width="80" height="80" as="geometry" />
        </mxCell>
        <mxCell id="55U_5O9v7u5vhaTBd-zU-222" value="" style="rounded=0;whiteSpace=wrap;html=1;fillColor=#f8cecc;strokeColor=#b85450;" vertex="1" parent="1">
          <mxGeometry x="2440" y="760" width="80" height="80" as="geometry" />
        </mxCell>
        <mxCell id="55U_5O9v7u5vhaTBd-zU-223" value="" style="rounded=0;whiteSpace=wrap;html=1;fillColor=#f8cecc;strokeColor=#b85450;" vertex="1" parent="1">
          <mxGeometry x="2360" y="840" width="80" height="80" as="geometry" />
        </mxCell>
        <mxCell id="55U_5O9v7u5vhaTBd-zU-224" value="" style="rounded=0;whiteSpace=wrap;html=1;fillColor=#f8cecc;strokeColor=#b85450;" vertex="1" parent="1">
          <mxGeometry x="2440" y="840" width="80" height="80" as="geometry" />
        </mxCell>
        <mxCell id="55U_5O9v7u5vhaTBd-zU-225" value="" style="rounded=0;whiteSpace=wrap;html=1;fillColor=#f8cecc;strokeColor=#b85450;" vertex="1" parent="1">
          <mxGeometry x="2200" y="920" width="80" height="80" as="geometry" />
        </mxCell>
        <mxCell id="55U_5O9v7u5vhaTBd-zU-226" value="" style="rounded=0;whiteSpace=wrap;html=1;fillColor=#f8cecc;strokeColor=#b85450;" vertex="1" parent="1">
          <mxGeometry x="2280" y="920" width="80" height="80" as="geometry" />
        </mxCell>
        <mxCell id="55U_5O9v7u5vhaTBd-zU-227" value="" style="rounded=0;whiteSpace=wrap;html=1;fillColor=#f8cecc;strokeColor=#b85450;" vertex="1" parent="1">
          <mxGeometry x="2200" y="1000" width="80" height="80" as="geometry" />
        </mxCell>
        <mxCell id="55U_5O9v7u5vhaTBd-zU-228" value="" style="rounded=0;whiteSpace=wrap;html=1;fillColor=#f8cecc;strokeColor=#b85450;" vertex="1" parent="1">
          <mxGeometry x="2280" y="1000" width="80" height="80" as="geometry" />
        </mxCell>
        <mxCell id="55U_5O9v7u5vhaTBd-zU-229" value="" style="rounded=0;whiteSpace=wrap;html=1;fillColor=#f8cecc;strokeColor=#b85450;" vertex="1" parent="1">
          <mxGeometry x="2360" y="920" width="80" height="80" as="geometry" />
        </mxCell>
        <mxCell id="55U_5O9v7u5vhaTBd-zU-230" value="" style="rounded=0;whiteSpace=wrap;html=1;fillColor=#f8cecc;strokeColor=#b85450;" vertex="1" parent="1">
          <mxGeometry x="2440" y="920" width="80" height="80" as="geometry" />
        </mxCell>
        <mxCell id="55U_5O9v7u5vhaTBd-zU-231" value="" style="rounded=0;whiteSpace=wrap;html=1;fillColor=#f8cecc;strokeColor=#b85450;" vertex="1" parent="1">
          <mxGeometry x="2360" y="1000" width="80" height="80" as="geometry" />
        </mxCell>
        <mxCell id="55U_5O9v7u5vhaTBd-zU-232" value="" style="rounded=0;whiteSpace=wrap;html=1;fillColor=#f8cecc;strokeColor=#b85450;" vertex="1" parent="1">
          <mxGeometry x="2440" y="1000" width="80" height="80" as="geometry" />
        </mxCell>
        <mxCell id="55U_5O9v7u5vhaTBd-zU-233" value="" style="endArrow=none;dashed=1;html=1;rounded=0;strokeWidth=6;dashPattern=1 4;fillColor=#f8cecc;strokeColor=#b85450;" edge="1" parent="1">
          <mxGeometry width="50" height="50" relative="1" as="geometry">
            <mxPoint x="2065" y="918.95" as="sourcePoint" />
            <mxPoint x="2185" y="918.95" as="targetPoint" />
          </mxGeometry>
        </mxCell>
        <mxCell id="55U_5O9v7u5vhaTBd-zU-234" value="" style="rounded=0;whiteSpace=wrap;html=1;fillColor=#f8cecc;strokeColor=#b85450;" vertex="1" parent="1">
          <mxGeometry x="1720" y="320" width="80" height="80" as="geometry" />
        </mxCell>
        <mxCell id="55U_5O9v7u5vhaTBd-zU-235" value="" style="rounded=0;whiteSpace=wrap;html=1;fillColor=#f8cecc;strokeColor=#b85450;" vertex="1" parent="1">
          <mxGeometry x="1800" y="320" width="80" height="80" as="geometry" />
        </mxCell>
        <mxCell id="55U_5O9v7u5vhaTBd-zU-236" value="" style="rounded=0;whiteSpace=wrap;html=1;fillColor=#f8cecc;strokeColor=#b85450;" vertex="1" parent="1">
          <mxGeometry x="1720" y="400" width="80" height="80" as="geometry" />
        </mxCell>
        <mxCell id="55U_5O9v7u5vhaTBd-zU-237" value="" style="rounded=0;whiteSpace=wrap;html=1;fillColor=#f8cecc;strokeColor=#b85450;" vertex="1" parent="1">
          <mxGeometry x="1800" y="400" width="80" height="80" as="geometry" />
        </mxCell>
        <mxCell id="55U_5O9v7u5vhaTBd-zU-238" value="" style="rounded=0;whiteSpace=wrap;html=1;fillColor=#f8cecc;strokeColor=#b85450;" vertex="1" parent="1">
          <mxGeometry x="1880" y="320" width="80" height="80" as="geometry" />
        </mxCell>
        <mxCell id="55U_5O9v7u5vhaTBd-zU-239" value="" style="rounded=0;whiteSpace=wrap;html=1;fillColor=#f8cecc;strokeColor=#b85450;" vertex="1" parent="1">
          <mxGeometry x="1960" y="320" width="80" height="80" as="geometry" />
        </mxCell>
        <mxCell id="55U_5O9v7u5vhaTBd-zU-240" value="" style="rounded=0;whiteSpace=wrap;html=1;fillColor=#f8cecc;strokeColor=#b85450;" vertex="1" parent="1">
          <mxGeometry x="1880" y="400" width="80" height="80" as="geometry" />
        </mxCell>
        <mxCell id="55U_5O9v7u5vhaTBd-zU-241" value="" style="rounded=0;whiteSpace=wrap;html=1;fillColor=#f8cecc;strokeColor=#b85450;" vertex="1" parent="1">
          <mxGeometry x="1960" y="400" width="80" height="80" as="geometry" />
        </mxCell>
        <mxCell id="55U_5O9v7u5vhaTBd-zU-242" value="" style="rounded=0;whiteSpace=wrap;html=1;fillColor=#f8cecc;strokeColor=#b85450;" vertex="1" parent="1">
          <mxGeometry x="1720" y="480" width="80" height="80" as="geometry" />
        </mxCell>
        <mxCell id="55U_5O9v7u5vhaTBd-zU-243" value="" style="rounded=0;whiteSpace=wrap;html=1;fillColor=#f8cecc;strokeColor=#b85450;" vertex="1" parent="1">
          <mxGeometry x="1800" y="480" width="80" height="80" as="geometry" />
        </mxCell>
        <mxCell id="55U_5O9v7u5vhaTBd-zU-244" value="" style="rounded=0;whiteSpace=wrap;html=1;fillColor=#f8cecc;strokeColor=#b85450;" vertex="1" parent="1">
          <mxGeometry x="1720" y="560" width="80" height="80" as="geometry" />
        </mxCell>
        <mxCell id="55U_5O9v7u5vhaTBd-zU-245" value="" style="rounded=0;whiteSpace=wrap;html=1;fillColor=#f8cecc;strokeColor=#b85450;" vertex="1" parent="1">
          <mxGeometry x="1800" y="560" width="80" height="80" as="geometry" />
        </mxCell>
        <mxCell id="55U_5O9v7u5vhaTBd-zU-246" value="" style="rounded=0;whiteSpace=wrap;html=1;fillColor=#f8cecc;strokeColor=#b85450;" vertex="1" parent="1">
          <mxGeometry x="1880" y="480" width="80" height="80" as="geometry" />
        </mxCell>
        <mxCell id="55U_5O9v7u5vhaTBd-zU-247" value="" style="rounded=0;whiteSpace=wrap;html=1;fillColor=#f8cecc;strokeColor=#b85450;" vertex="1" parent="1">
          <mxGeometry x="1960" y="480" width="80" height="80" as="geometry" />
        </mxCell>
        <mxCell id="55U_5O9v7u5vhaTBd-zU-248" value="" style="rounded=0;whiteSpace=wrap;html=1;fillColor=#f8cecc;strokeColor=#b85450;" vertex="1" parent="1">
          <mxGeometry x="1880" y="560" width="80" height="80" as="geometry" />
        </mxCell>
        <mxCell id="55U_5O9v7u5vhaTBd-zU-249" value="" style="rounded=0;whiteSpace=wrap;html=1;fillColor=#f8cecc;strokeColor=#b85450;" vertex="1" parent="1">
          <mxGeometry x="1960" y="560" width="80" height="80" as="geometry" />
        </mxCell>
        <mxCell id="55U_5O9v7u5vhaTBd-zU-250" value="" style="rounded=0;whiteSpace=wrap;html=1;fillColor=#f8cecc;strokeColor=#b85450;" vertex="1" parent="1">
          <mxGeometry x="2200" y="320" width="80" height="80" as="geometry" />
        </mxCell>
        <mxCell id="55U_5O9v7u5vhaTBd-zU-251" value="" style="rounded=0;whiteSpace=wrap;html=1;fillColor=#f8cecc;strokeColor=#b85450;" vertex="1" parent="1">
          <mxGeometry x="2280" y="320" width="80" height="80" as="geometry" />
        </mxCell>
        <mxCell id="55U_5O9v7u5vhaTBd-zU-252" value="" style="rounded=0;whiteSpace=wrap;html=1;fillColor=#f8cecc;strokeColor=#b85450;" vertex="1" parent="1">
          <mxGeometry x="2200" y="400" width="80" height="80" as="geometry" />
        </mxCell>
        <mxCell id="55U_5O9v7u5vhaTBd-zU-253" value="" style="rounded=0;whiteSpace=wrap;html=1;fillColor=#f8cecc;strokeColor=#b85450;" vertex="1" parent="1">
          <mxGeometry x="2280" y="400" width="80" height="80" as="geometry" />
        </mxCell>
        <mxCell id="55U_5O9v7u5vhaTBd-zU-254" value="" style="rounded=0;whiteSpace=wrap;html=1;fillColor=#f8cecc;strokeColor=#b85450;" vertex="1" parent="1">
          <mxGeometry x="2360" y="320" width="80" height="80" as="geometry" />
        </mxCell>
        <mxCell id="55U_5O9v7u5vhaTBd-zU-255" value="" style="rounded=0;whiteSpace=wrap;html=1;fillColor=#f8cecc;strokeColor=#b85450;" vertex="1" parent="1">
          <mxGeometry x="2440" y="320" width="80" height="80" as="geometry" />
        </mxCell>
        <mxCell id="55U_5O9v7u5vhaTBd-zU-256" value="" style="rounded=0;whiteSpace=wrap;html=1;fillColor=#f8cecc;strokeColor=#b85450;" vertex="1" parent="1">
          <mxGeometry x="2360" y="400" width="80" height="80" as="geometry" />
        </mxCell>
        <mxCell id="55U_5O9v7u5vhaTBd-zU-257" value="" style="rounded=0;whiteSpace=wrap;html=1;fillColor=#f8cecc;strokeColor=#b85450;" vertex="1" parent="1">
          <mxGeometry x="2440" y="400" width="80" height="80" as="geometry" />
        </mxCell>
        <mxCell id="55U_5O9v7u5vhaTBd-zU-258" value="" style="rounded=0;whiteSpace=wrap;html=1;fillColor=#f8cecc;strokeColor=#b85450;" vertex="1" parent="1">
          <mxGeometry x="2200" y="480" width="80" height="80" as="geometry" />
        </mxCell>
        <mxCell id="55U_5O9v7u5vhaTBd-zU-259" value="" style="rounded=0;whiteSpace=wrap;html=1;fillColor=#f8cecc;strokeColor=#b85450;" vertex="1" parent="1">
          <mxGeometry x="2280" y="480" width="80" height="80" as="geometry" />
        </mxCell>
        <mxCell id="55U_5O9v7u5vhaTBd-zU-260" value="" style="rounded=0;whiteSpace=wrap;html=1;fillColor=#f8cecc;strokeColor=#b85450;" vertex="1" parent="1">
          <mxGeometry x="2200" y="560" width="80" height="80" as="geometry" />
        </mxCell>
        <mxCell id="55U_5O9v7u5vhaTBd-zU-261" value="" style="rounded=0;whiteSpace=wrap;html=1;fillColor=#f8cecc;strokeColor=#b85450;" vertex="1" parent="1">
          <mxGeometry x="2280" y="560" width="80" height="80" as="geometry" />
        </mxCell>
        <mxCell id="55U_5O9v7u5vhaTBd-zU-262" value="" style="rounded=0;whiteSpace=wrap;html=1;fillColor=#f8cecc;strokeColor=#b85450;" vertex="1" parent="1">
          <mxGeometry x="2360" y="480" width="80" height="80" as="geometry" />
        </mxCell>
        <mxCell id="55U_5O9v7u5vhaTBd-zU-263" value="" style="rounded=0;whiteSpace=wrap;html=1;fillColor=#f8cecc;strokeColor=#b85450;" vertex="1" parent="1">
          <mxGeometry x="2440" y="480" width="80" height="80" as="geometry" />
        </mxCell>
        <mxCell id="55U_5O9v7u5vhaTBd-zU-264" value="" style="rounded=0;whiteSpace=wrap;html=1;fillColor=#f8cecc;strokeColor=#b85450;" vertex="1" parent="1">
          <mxGeometry x="2360" y="560" width="80" height="80" as="geometry" />
        </mxCell>
        <mxCell id="55U_5O9v7u5vhaTBd-zU-265" value="" style="rounded=0;whiteSpace=wrap;html=1;fillColor=#f8cecc;strokeColor=#b85450;" vertex="1" parent="1">
          <mxGeometry x="2440" y="560" width="80" height="80" as="geometry" />
        </mxCell>
        <mxCell id="55U_5O9v7u5vhaTBd-zU-266" value="" style="endArrow=none;dashed=1;html=1;rounded=0;strokeWidth=6;dashPattern=1 4;fillColor=#f8cecc;strokeColor=#b85450;" edge="1" parent="1">
          <mxGeometry width="50" height="50" relative="1" as="geometry">
            <mxPoint x="2065" y="478.95000000000005" as="sourcePoint" />
            <mxPoint x="2185" y="478.95000000000005" as="targetPoint" />
          </mxGeometry>
        </mxCell>
        <mxCell id="55U_5O9v7u5vhaTBd-zU-267" value="" style="endArrow=none;dashed=1;html=1;rounded=0;strokeWidth=6;dashPattern=1 4;fillColor=#f8cecc;strokeColor=#b85450;" edge="1" parent="1">
          <mxGeometry width="50" height="50" relative="1" as="geometry">
            <mxPoint x="1880" y="660" as="sourcePoint" />
            <mxPoint x="1880" y="740" as="targetPoint" />
          </mxGeometry>
        </mxCell>
        <mxCell id="55U_5O9v7u5vhaTBd-zU-268" value="" style="endArrow=none;dashed=1;html=1;rounded=0;strokeWidth=6;dashPattern=1 4;fillColor=#f8cecc;strokeColor=#b85450;" edge="1" parent="1">
          <mxGeometry width="50" height="50" relative="1" as="geometry">
            <mxPoint x="2360" y="660" as="sourcePoint" />
            <mxPoint x="2360" y="740" as="targetPoint" />
          </mxGeometry>
        </mxCell>
        <mxCell id="55U_5O9v7u5vhaTBd-zU-269" value="" style="shape=flexArrow;endArrow=classic;startArrow=classic;html=1;rounded=0;" edge="1" parent="1">
          <mxGeometry width="100" height="100" relative="1" as="geometry">
            <mxPoint x="1640" y="1080" as="sourcePoint" />
            <mxPoint x="1640" y="320" as="targetPoint" />
          </mxGeometry>
        </mxCell>
        <mxCell id="55U_5O9v7u5vhaTBd-zU-270" value="&lt;font style=&quot;font-size: 40px;&quot;&gt;Input Channel&lt;/font&gt;&lt;div style=&quot;font-size: 40px;&quot;&gt;&lt;font style=&quot;font-size: 40px;&quot;&gt;C&lt;/font&gt;&lt;/div&gt;" style="edgeLabel;html=1;align=center;verticalAlign=middle;resizable=0;points=[];" vertex="1" connectable="0" parent="55U_5O9v7u5vhaTBd-zU-269">
          <mxGeometry x="-0.019" y="4" relative="1" as="geometry">
            <mxPoint y="1" as="offset" />
          </mxGeometry>
        </mxCell>
        <mxCell id="55U_5O9v7u5vhaTBd-zU-271" value="" style="shape=flexArrow;endArrow=classic;startArrow=classic;html=1;rounded=0;" edge="1" parent="1">
          <mxGeometry width="100" height="100" relative="1" as="geometry">
            <mxPoint x="1640" y="80" as="sourcePoint" />
            <mxPoint x="1640" y="-1120" as="targetPoint" />
          </mxGeometry>
        </mxCell>
        <mxCell id="55U_5O9v7u5vhaTBd-zU-272" value="&lt;font style=&quot;font-size: 40px;&quot;&gt;N * H * W&lt;/font&gt;" style="edgeLabel;html=1;align=center;verticalAlign=middle;resizable=0;points=[];" vertex="1" connectable="0" parent="55U_5O9v7u5vhaTBd-zU-271">
          <mxGeometry x="-0.019" y="4" relative="1" as="geometry">
            <mxPoint y="1" as="offset" />
          </mxGeometry>
        </mxCell>
        <mxCell id="55U_5O9v7u5vhaTBd-zU-273" value="" style="shape=flexArrow;endArrow=classic;startArrow=classic;html=1;rounded=0;" edge="1" parent="1">
          <mxGeometry width="100" height="100" relative="1" as="geometry">
            <mxPoint x="1520" y="240" as="sourcePoint" />
            <mxPoint x="40" y="240" as="targetPoint" />
          </mxGeometry>
        </mxCell>
        <mxCell id="55U_5O9v7u5vhaTBd-zU-274" value="&lt;font style=&quot;font-size: 40px;&quot;&gt;N * H * W&lt;/font&gt;" style="edgeLabel;html=1;align=center;verticalAlign=middle;resizable=0;points=[];" vertex="1" connectable="0" parent="55U_5O9v7u5vhaTBd-zU-273">
          <mxGeometry x="-0.019" y="4" relative="1" as="geometry">
            <mxPoint y="1" as="offset" />
          </mxGeometry>
        </mxCell>
        <mxCell id="55U_5O9v7u5vhaTBd-zU-275" value="" style="shape=flexArrow;endArrow=classic;startArrow=classic;html=1;rounded=0;" edge="1" parent="1">
          <mxGeometry width="100" height="100" relative="1" as="geometry">
            <mxPoint x="2520" y="240" as="sourcePoint" />
            <mxPoint x="1720" y="240" as="targetPoint" />
          </mxGeometry>
        </mxCell>
        <mxCell id="55U_5O9v7u5vhaTBd-zU-276" value="&lt;span style=&quot;font-size: 40px;&quot;&gt;Ouput Channel&lt;/span&gt;&lt;div&gt;&lt;span style=&quot;font-size: 40px;&quot;&gt;M&lt;/span&gt;&lt;/div&gt;" style="edgeLabel;html=1;align=center;verticalAlign=middle;resizable=0;points=[];" vertex="1" connectable="0" parent="55U_5O9v7u5vhaTBd-zU-275">
          <mxGeometry x="-0.019" y="4" relative="1" as="geometry">
            <mxPoint y="1" as="offset" />
          </mxGeometry>
        </mxCell>
        <mxCell id="55U_5O9v7u5vhaTBd-zU-277" value="" style="rounded=0;whiteSpace=wrap;html=1;fillColor=#e1d5e7;strokeColor=#9673a6;" vertex="1" parent="1">
          <mxGeometry x="1720" y="-1120" width="80" height="80" as="geometry" />
        </mxCell>
        <mxCell id="55U_5O9v7u5vhaTBd-zU-278" value="" style="rounded=0;whiteSpace=wrap;html=1;fillColor=#e1d5e7;strokeColor=#9673a6;" vertex="1" parent="1">
          <mxGeometry x="1800" y="-1120" width="80" height="80" as="geometry" />
        </mxCell>
        <mxCell id="55U_5O9v7u5vhaTBd-zU-279" value="" style="rounded=0;whiteSpace=wrap;html=1;fillColor=#e1d5e7;strokeColor=#9673a6;" vertex="1" parent="1">
          <mxGeometry x="1720" y="-1040" width="80" height="80" as="geometry" />
        </mxCell>
        <mxCell id="55U_5O9v7u5vhaTBd-zU-280" value="" style="rounded=0;whiteSpace=wrap;html=1;fillColor=#e1d5e7;strokeColor=#9673a6;" vertex="1" parent="1">
          <mxGeometry x="1800" y="-1040" width="80" height="80" as="geometry" />
        </mxCell>
        <mxCell id="55U_5O9v7u5vhaTBd-zU-281" value="" style="rounded=0;whiteSpace=wrap;html=1;fillColor=#e1d5e7;strokeColor=#9673a6;" vertex="1" parent="1">
          <mxGeometry x="1880" y="-1120" width="80" height="80" as="geometry" />
        </mxCell>
        <mxCell id="55U_5O9v7u5vhaTBd-zU-282" value="" style="rounded=0;whiteSpace=wrap;html=1;fillColor=#e1d5e7;strokeColor=#9673a6;" vertex="1" parent="1">
          <mxGeometry x="1960" y="-1120" width="80" height="80" as="geometry" />
        </mxCell>
        <mxCell id="55U_5O9v7u5vhaTBd-zU-283" value="" style="rounded=0;whiteSpace=wrap;html=1;fillColor=#e1d5e7;strokeColor=#9673a6;" vertex="1" parent="1">
          <mxGeometry x="1880" y="-1040" width="80" height="80" as="geometry" />
        </mxCell>
        <mxCell id="55U_5O9v7u5vhaTBd-zU-284" value="" style="rounded=0;whiteSpace=wrap;html=1;fillColor=#e1d5e7;strokeColor=#9673a6;" vertex="1" parent="1">
          <mxGeometry x="1960" y="-1040" width="80" height="80" as="geometry" />
        </mxCell>
        <mxCell id="55U_5O9v7u5vhaTBd-zU-285" value="" style="rounded=0;whiteSpace=wrap;html=1;fillColor=#e1d5e7;strokeColor=#9673a6;" vertex="1" parent="1">
          <mxGeometry x="1720" y="-960" width="80" height="80" as="geometry" />
        </mxCell>
        <mxCell id="55U_5O9v7u5vhaTBd-zU-286" value="" style="rounded=0;whiteSpace=wrap;html=1;fillColor=#e1d5e7;strokeColor=#9673a6;" vertex="1" parent="1">
          <mxGeometry x="1800" y="-960" width="80" height="80" as="geometry" />
        </mxCell>
        <mxCell id="55U_5O9v7u5vhaTBd-zU-287" value="" style="rounded=0;whiteSpace=wrap;html=1;fillColor=#e1d5e7;strokeColor=#9673a6;" vertex="1" parent="1">
          <mxGeometry x="1720" y="-880" width="80" height="80" as="geometry" />
        </mxCell>
        <mxCell id="55U_5O9v7u5vhaTBd-zU-288" value="" style="rounded=0;whiteSpace=wrap;html=1;fillColor=#e1d5e7;strokeColor=#9673a6;" vertex="1" parent="1">
          <mxGeometry x="1800" y="-880" width="80" height="80" as="geometry" />
        </mxCell>
        <mxCell id="55U_5O9v7u5vhaTBd-zU-289" value="" style="rounded=0;whiteSpace=wrap;html=1;fillColor=#e1d5e7;strokeColor=#9673a6;" vertex="1" parent="1">
          <mxGeometry x="1880" y="-960" width="80" height="80" as="geometry" />
        </mxCell>
        <mxCell id="55U_5O9v7u5vhaTBd-zU-290" value="" style="rounded=0;whiteSpace=wrap;html=1;fillColor=#e1d5e7;strokeColor=#9673a6;" vertex="1" parent="1">
          <mxGeometry x="1960" y="-960" width="80" height="80" as="geometry" />
        </mxCell>
        <mxCell id="55U_5O9v7u5vhaTBd-zU-291" value="" style="rounded=0;whiteSpace=wrap;html=1;fillColor=#e1d5e7;strokeColor=#9673a6;" vertex="1" parent="1">
          <mxGeometry x="1880" y="-880" width="80" height="80" as="geometry" />
        </mxCell>
        <mxCell id="55U_5O9v7u5vhaTBd-zU-292" value="" style="rounded=0;whiteSpace=wrap;html=1;fillColor=#e1d5e7;strokeColor=#9673a6;" vertex="1" parent="1">
          <mxGeometry x="1960" y="-880" width="80" height="80" as="geometry" />
        </mxCell>
        <mxCell id="55U_5O9v7u5vhaTBd-zU-293" value="" style="rounded=0;whiteSpace=wrap;html=1;fillColor=#e1d5e7;strokeColor=#9673a6;" vertex="1" parent="1">
          <mxGeometry x="2200" y="-1120" width="80" height="80" as="geometry" />
        </mxCell>
        <mxCell id="55U_5O9v7u5vhaTBd-zU-294" value="" style="rounded=0;whiteSpace=wrap;html=1;fillColor=#e1d5e7;strokeColor=#9673a6;" vertex="1" parent="1">
          <mxGeometry x="2280" y="-1120" width="80" height="80" as="geometry" />
        </mxCell>
        <mxCell id="55U_5O9v7u5vhaTBd-zU-295" value="" style="rounded=0;whiteSpace=wrap;html=1;fillColor=#e1d5e7;strokeColor=#9673a6;" vertex="1" parent="1">
          <mxGeometry x="2200" y="-1040" width="80" height="80" as="geometry" />
        </mxCell>
        <mxCell id="55U_5O9v7u5vhaTBd-zU-296" value="" style="rounded=0;whiteSpace=wrap;html=1;fillColor=#e1d5e7;strokeColor=#9673a6;" vertex="1" parent="1">
          <mxGeometry x="2280" y="-1040" width="80" height="80" as="geometry" />
        </mxCell>
        <mxCell id="55U_5O9v7u5vhaTBd-zU-297" value="" style="rounded=0;whiteSpace=wrap;html=1;fillColor=#e1d5e7;strokeColor=#9673a6;" vertex="1" parent="1">
          <mxGeometry x="2360" y="-1120" width="80" height="80" as="geometry" />
        </mxCell>
        <mxCell id="55U_5O9v7u5vhaTBd-zU-298" value="" style="rounded=0;whiteSpace=wrap;html=1;fillColor=#e1d5e7;strokeColor=#9673a6;" vertex="1" parent="1">
          <mxGeometry x="2440" y="-1120" width="80" height="80" as="geometry" />
        </mxCell>
        <mxCell id="55U_5O9v7u5vhaTBd-zU-299" value="" style="rounded=0;whiteSpace=wrap;html=1;fillColor=#e1d5e7;strokeColor=#9673a6;" vertex="1" parent="1">
          <mxGeometry x="2360" y="-1040" width="80" height="80" as="geometry" />
        </mxCell>
        <mxCell id="55U_5O9v7u5vhaTBd-zU-300" value="" style="rounded=0;whiteSpace=wrap;html=1;fillColor=#e1d5e7;strokeColor=#9673a6;" vertex="1" parent="1">
          <mxGeometry x="2440" y="-1040" width="80" height="80" as="geometry" />
        </mxCell>
        <mxCell id="55U_5O9v7u5vhaTBd-zU-301" value="" style="rounded=0;whiteSpace=wrap;html=1;fillColor=#e1d5e7;strokeColor=#9673a6;" vertex="1" parent="1">
          <mxGeometry x="2200" y="-960" width="80" height="80" as="geometry" />
        </mxCell>
        <mxCell id="55U_5O9v7u5vhaTBd-zU-302" value="" style="rounded=0;whiteSpace=wrap;html=1;fillColor=#e1d5e7;strokeColor=#9673a6;" vertex="1" parent="1">
          <mxGeometry x="2280" y="-960" width="80" height="80" as="geometry" />
        </mxCell>
        <mxCell id="55U_5O9v7u5vhaTBd-zU-303" value="" style="rounded=0;whiteSpace=wrap;html=1;fillColor=#e1d5e7;strokeColor=#9673a6;" vertex="1" parent="1">
          <mxGeometry x="2200" y="-880" width="80" height="80" as="geometry" />
        </mxCell>
        <mxCell id="55U_5O9v7u5vhaTBd-zU-304" value="" style="rounded=0;whiteSpace=wrap;html=1;fillColor=#e1d5e7;strokeColor=#9673a6;" vertex="1" parent="1">
          <mxGeometry x="2280" y="-880" width="80" height="80" as="geometry" />
        </mxCell>
        <mxCell id="55U_5O9v7u5vhaTBd-zU-305" value="" style="rounded=0;whiteSpace=wrap;html=1;fillColor=#e1d5e7;strokeColor=#9673a6;" vertex="1" parent="1">
          <mxGeometry x="2360" y="-960" width="80" height="80" as="geometry" />
        </mxCell>
        <mxCell id="55U_5O9v7u5vhaTBd-zU-306" value="" style="rounded=0;whiteSpace=wrap;html=1;fillColor=#e1d5e7;strokeColor=#9673a6;" vertex="1" parent="1">
          <mxGeometry x="2440" y="-960" width="80" height="80" as="geometry" />
        </mxCell>
        <mxCell id="55U_5O9v7u5vhaTBd-zU-307" value="" style="rounded=0;whiteSpace=wrap;html=1;fillColor=#e1d5e7;strokeColor=#9673a6;" vertex="1" parent="1">
          <mxGeometry x="2360" y="-880" width="80" height="80" as="geometry" />
        </mxCell>
        <mxCell id="55U_5O9v7u5vhaTBd-zU-308" value="" style="rounded=0;whiteSpace=wrap;html=1;fillColor=#e1d5e7;strokeColor=#9673a6;" vertex="1" parent="1">
          <mxGeometry x="2440" y="-880" width="80" height="80" as="geometry" />
        </mxCell>
        <mxCell id="55U_5O9v7u5vhaTBd-zU-309" value="" style="endArrow=none;dashed=1;html=1;rounded=0;strokeWidth=6;dashPattern=1 4;fillColor=#e1d5e7;strokeColor=#9673a6;" edge="1" parent="1">
          <mxGeometry width="50" height="50" relative="1" as="geometry">
            <mxPoint x="2065" y="-961.05" as="sourcePoint" />
            <mxPoint x="2185" y="-961.05" as="targetPoint" />
          </mxGeometry>
        </mxCell>
      </root>
    </mxGraphModel>
  </diagram>
</mxfile>
